<svg width="87" height="100" viewBox="0 0 87 100" fill="none" xmlns="http://www.w3.org/2000/svg">
<g clip-path="url(#clip0_316_299)">
<g clip-path="url(#clip1_316_299)">
<path d="M75.1877 49.59C72.8597 50.182 71.4197 49.616 70.1277 47.676L60.9397 34.964L59.6117 33.204L48.8817 47.718C47.6557 49.464 46.3697 50.224 44.0817 49.606L57.8217 31.162L45.0297 14.502C47.2297 14.074 48.7497 14.292 50.0997 16.262L59.6297 29.132L69.2297 16.332C70.4597 14.586 71.7817 13.922 73.9897 14.566L69.0297 21.142L62.3097 29.892C61.5097 30.892 61.6197 31.576 62.3557 32.542L75.1877 49.59ZM11.2037 30.854L12.3277 25.326C15.3877 14.386 27.9277 9.84002 36.5757 16.6C41.6297 20.576 42.8857 26.2 42.6357 32.5H14.1477C13.7197 43.84 21.8817 50.684 32.2877 47.192C35.9377 45.966 38.0877 43.108 39.1637 39.532C39.7097 37.74 40.6137 37.46 42.2977 37.972C41.4377 42.444 39.4977 46.18 35.3977 48.518C29.2717 52.018 20.5277 50.886 15.9277 46.022C13.1877 43.2 12.0557 39.624 11.5477 35.8C11.4677 35.168 11.3077 34.566 11.1877 33.96C11.1984 32.9254 11.2037 31.8907 11.2037 30.856V30.854ZM14.1997 30.094H39.9437C39.7757 21.894 34.6697 16.07 27.6917 16.02C20.0317 15.96 14.5317 21.646 14.1997 30.094Z" fill="black"/>
</g>
<path d="M1.77297 93V79.9091H9.67354V81.3153H3.3582V85.7386H9.26445V87.1449H3.3582V91.5938H9.77581V93H1.77297ZM13.4512 83.1818L15.8035 87.196L18.1558 83.1818H19.8944L16.724 88.0909L19.8944 93H18.1558L15.8035 89.1903L13.4512 93H11.7126L14.8319 88.0909L11.7126 83.1818H13.4512ZM22.0469 96.6818V83.1818H23.5043V84.7415H23.6833C23.7941 84.571 23.9475 84.3537 24.1435 84.0895C24.3438 83.821 24.6293 83.5824 25.0001 83.3736C25.3751 83.1605 25.8822 83.054 26.5214 83.054C27.3481 83.054 28.0768 83.2607 28.7075 83.674C29.3381 84.0874 29.8303 84.6733 30.184 85.4318C30.5377 86.1903 30.7146 87.0852 30.7146 88.1165C30.7146 89.1562 30.5377 90.0575 30.184 90.8203C29.8303 91.5788 29.3403 92.1669 28.7138 92.5845C28.0874 92.9979 27.3651 93.2045 26.5469 93.2045C25.9163 93.2045 25.4113 93.1001 25.032 92.8913C24.6528 92.6783 24.3609 92.4375 24.1563 92.169C23.9518 91.8963 23.7941 91.6705 23.6833 91.4915H23.5555V96.6818H22.0469ZM23.5299 88.0909C23.5299 88.8324 23.6386 89.4865 23.8559 90.0533C24.0732 90.6158 24.3907 91.0568 24.8083 91.3764C25.2259 91.6918 25.7373 91.8494 26.3424 91.8494C26.9731 91.8494 27.4994 91.6832 27.9212 91.3509C28.3474 91.0142 28.667 90.5625 28.88 89.9957C29.0974 89.4247 29.206 88.7898 29.206 88.0909C29.206 87.4006 29.0995 86.7784 28.8864 86.2244C28.6776 85.6662 28.3602 85.2251 27.934 84.9013C27.5121 84.5732 26.9816 84.4091 26.3424 84.4091C25.7288 84.4091 25.2131 84.5646 24.7955 84.8757C24.3779 85.1825 24.0626 85.6129 23.8495 86.1669C23.6364 86.7166 23.5299 87.358 23.5299 88.0909ZM33.0157 93V83.1818H34.4731V84.6648H34.5754C34.7543 84.179 35.0782 83.7848 35.5469 83.4822C36.0157 83.1797 36.5441 83.0284 37.1322 83.0284C37.243 83.0284 37.3815 83.0305 37.5477 83.0348C37.7138 83.0391 37.8396 83.0455 37.9248 83.054V84.5881C37.8736 84.5753 37.7565 84.5561 37.5732 84.5305C37.3942 84.5007 37.2046 84.4858 37.0043 84.4858C36.5271 84.4858 36.1009 84.5859 35.7259 84.7862C35.3552 84.9822 35.0611 85.255 34.8438 85.6044C34.6307 85.9496 34.5242 86.3437 34.5242 86.7869V93H33.0157ZM43.5306 93.2045C42.5846 93.2045 41.7685 92.9957 41.0825 92.5781C40.4006 92.1562 39.8744 91.5682 39.5036 90.8139C39.1371 90.0554 38.9539 89.1733 38.9539 88.1676C38.9539 87.1619 39.1371 86.2756 39.5036 85.5085C39.8744 84.7372 40.39 84.1364 41.0505 83.706C41.7153 83.2713 42.4908 83.054 43.3772 83.054C43.8886 83.054 44.3935 83.1392 44.8921 83.3097C45.3907 83.4801 45.8445 83.7571 46.2536 84.1406C46.6627 84.5199 46.9887 85.0227 47.2316 85.6491C47.4745 86.2756 47.5959 87.0469 47.5959 87.9631V88.6023H40.0278V87.2983H46.0619C46.0619 86.7443 45.9511 86.25 45.7295 85.8153C45.5121 85.3807 45.2011 85.0376 44.7962 84.7862C44.3957 84.5348 43.9227 84.4091 43.3772 84.4091C42.7763 84.4091 42.2565 84.5582 41.8175 84.8565C41.3829 85.1506 41.0484 85.5341 40.814 86.0071C40.5796 86.4801 40.4624 86.9872 40.4624 87.5284V88.3977C40.4624 89.1392 40.5903 89.7678 40.8459 90.2834C41.1059 90.7947 41.466 91.1847 41.9262 91.4531C42.3864 91.7173 42.9212 91.8494 43.5306 91.8494C43.9269 91.8494 44.2849 91.794 44.6045 91.6832C44.9283 91.5682 45.2075 91.3977 45.4418 91.1719C45.6762 90.9418 45.8573 90.6562 45.9852 90.3153L47.4425 90.7244C47.2891 91.2188 47.0313 91.6534 46.6691 92.0284C46.3069 92.3991 45.8594 92.6889 45.3268 92.8977C44.7941 93.1023 44.1954 93.2045 43.5306 93.2045ZM56.8452 85.3807L55.4901 85.7642C55.4049 85.5384 55.2792 85.3189 55.113 85.1058C54.9511 84.8885 54.7295 84.7095 54.4482 84.5689C54.167 84.4283 53.8069 84.358 53.368 84.358C52.7671 84.358 52.2664 84.4964 51.8658 84.7734C51.4695 85.0462 51.2714 85.3935 51.2714 85.8153C51.2714 86.1903 51.4077 86.4865 51.6805 86.7038C51.9532 86.9212 52.3793 87.1023 52.9589 87.2472L54.4163 87.6051C55.2941 87.8182 55.9482 88.1442 56.3786 88.5831C56.809 89.0178 57.0242 89.5781 57.0242 90.2642C57.0242 90.8267 56.8623 91.3295 56.5384 91.7727C56.2188 92.2159 55.7714 92.5653 55.1961 92.821C54.6208 93.0767 53.9518 93.2045 53.189 93.2045C52.1876 93.2045 51.3587 92.9872 50.7025 92.5526C50.0462 92.1179 49.6307 91.483 49.456 90.6477L50.8879 90.2898C51.0242 90.8182 51.282 91.2145 51.6613 91.4787C52.0448 91.7429 52.5455 91.875 53.1634 91.875C53.8665 91.875 54.4248 91.7259 54.8381 91.4276C55.2557 91.125 55.4646 90.7628 55.4646 90.3409C55.4646 90 55.3452 89.7145 55.1066 89.4844C54.868 89.25 54.5015 89.0753 54.0072 88.9602L52.3708 88.5767C51.4717 88.3636 50.8111 88.0334 50.3893 87.5859C49.9717 87.1342 49.7629 86.5696 49.7629 85.892C49.7629 85.3381 49.9184 84.848 50.2295 84.4219C50.5448 83.9957 50.9731 83.6612 51.5143 83.4183C52.0597 83.1754 52.6776 83.054 53.368 83.054C54.3396 83.054 55.1023 83.267 55.6563 83.6932C56.2146 84.1193 56.6109 84.6818 56.8452 85.3807ZM66.2495 85.3807L64.8944 85.7642C64.8092 85.5384 64.6835 85.3189 64.5173 85.1058C64.3554 84.8885 64.1338 84.7095 63.8525 84.5689C63.5713 84.4283 63.2112 84.358 62.7723 84.358C62.1714 84.358 61.6707 84.4964 61.2701 84.7734C60.8738 85.0462 60.6757 85.3935 60.6757 85.8153C60.6757 86.1903 60.812 86.4865 61.0848 86.7038C61.3575 86.9212 61.7836 87.1023 62.3632 87.2472L63.8206 87.6051C64.6984 87.8182 65.3525 88.1442 65.7829 88.5831C66.2133 89.0178 66.4285 89.5781 66.4285 90.2642C66.4285 90.8267 66.2666 91.3295 65.9427 91.7727C65.6231 92.2159 65.1757 92.5653 64.6004 92.821C64.0251 93.0767 63.3561 93.2045 62.5933 93.2045C61.5919 93.2045 60.763 92.9872 60.1068 92.5526C59.4505 92.1179 59.035 91.483 58.8603 90.6477L60.2921 90.2898C60.4285 90.8182 60.6863 91.2145 61.0656 91.4787C61.4491 91.7429 61.9498 91.875 62.5677 91.875C63.2708 91.875 63.8291 91.7259 64.2424 91.4276C64.66 91.125 64.8689 90.7628 64.8689 90.3409C64.8689 90 64.7495 89.7145 64.5109 89.4844C64.2723 89.25 63.9058 89.0753 63.4115 88.9602L61.7751 88.5767C60.876 88.3636 60.2154 88.0334 59.7936 87.5859C59.376 87.1342 59.1671 86.5696 59.1671 85.892C59.1671 85.3381 59.3227 84.848 59.6338 84.4219C59.9491 83.9957 60.3774 83.6612 60.9186 83.4183C61.464 83.1754 62.0819 83.054 62.7723 83.054C63.7439 83.054 64.5066 83.267 65.0606 83.6932C65.6189 84.1193 66.0152 84.6818 66.2495 85.3807ZM69.7987 93.1023C69.4834 93.1023 69.2128 92.9893 68.9869 92.7635C68.7611 92.5376 68.6481 92.267 68.6481 91.9517C68.6481 91.6364 68.7611 91.3658 68.9869 91.1399C69.2128 90.9141 69.4834 90.8011 69.7987 90.8011C70.1141 90.8011 70.3847 90.9141 70.6105 91.1399C70.8364 91.3658 70.9493 91.6364 70.9493 91.9517C70.9493 92.1605 70.896 92.3523 70.7895 92.527C70.6872 92.7017 70.5487 92.8423 70.374 92.9489C70.2035 93.0511 70.0118 93.1023 69.7987 93.1023ZM73.6563 83.1818H75.1648V93.7159C75.1648 94.321 75.0604 94.8452 74.8516 95.2884C74.6471 95.7315 74.336 96.0746 73.9184 96.3175C73.505 96.5604 72.983 96.6818 72.3523 96.6818C72.3012 96.6818 72.2501 96.6818 72.1989 96.6818C72.1478 96.6818 72.0967 96.6818 72.0455 96.6818V95.2756C72.0967 95.2756 72.1435 95.2756 72.1861 95.2756C72.2288 95.2756 72.2756 95.2756 72.3268 95.2756C72.787 95.2756 73.1236 95.1392 73.3367 94.8665C73.5498 94.598 73.6563 94.2145 73.6563 93.7159V83.1818ZM74.3978 81.5455C74.1038 81.5455 73.8502 81.4453 73.6371 81.245C73.4283 81.0447 73.3239 80.804 73.3239 80.5227C73.3239 80.2415 73.4283 80.0007 73.6371 79.8004C73.8502 79.6001 74.1038 79.5 74.3978 79.5C74.6918 79.5 74.9432 79.6001 75.1521 79.8004C75.3651 80.0007 75.4717 80.2415 75.4717 80.5227C75.4717 80.804 75.3651 81.0447 75.1521 81.245C74.9432 81.4453 74.6918 81.5455 74.3978 81.5455ZM84.8823 85.3807L83.5272 85.7642C83.442 85.5384 83.3163 85.3189 83.1501 85.1058C82.9882 84.8885 82.7666 84.7095 82.4853 84.5689C82.2041 84.4283 81.844 84.358 81.4051 84.358C80.8042 84.358 80.3035 84.4964 79.9029 84.7734C79.5066 85.0462 79.3085 85.3935 79.3085 85.8153C79.3085 86.1903 79.4448 86.4865 79.7176 86.7038C79.9903 86.9212 80.4164 87.1023 80.996 87.2472L82.4534 87.6051C83.3312 87.8182 83.9853 88.1442 84.4157 88.5831C84.8461 89.0178 85.0613 89.5781 85.0613 90.2642C85.0613 90.8267 84.8994 91.3295 84.5755 91.7727C84.2559 92.2159 83.8085 92.5653 83.2332 92.821C82.6579 93.0767 81.9889 93.2045 81.2261 93.2045C80.2247 93.2045 79.3958 92.9872 78.7396 92.5526C78.0833 92.1179 77.6679 91.483 77.4931 90.6477L78.925 90.2898C79.0613 90.8182 79.3191 91.2145 79.6984 91.4787C80.0819 91.7429 80.5826 91.875 81.2005 91.875C81.9037 91.875 82.4619 91.7259 82.8752 91.4276C83.2929 91.125 83.5017 90.7628 83.5017 90.3409C83.5017 90 83.3823 89.7145 83.1437 89.4844C82.9051 89.25 82.5386 89.0753 82.0443 88.9602L80.4079 88.5767C79.5088 88.3636 78.8483 88.0334 78.4264 87.5859C78.0088 87.1342 77.8 86.5696 77.8 85.892C77.8 85.3381 77.9555 84.848 78.2666 84.4219C78.5819 83.9957 79.0102 83.6612 79.5514 83.4183C80.0968 83.1754 80.7147 83.054 81.4051 83.054C82.3767 83.054 83.1394 83.267 83.6934 83.6932C84.2517 84.1193 84.648 84.6818 84.8823 85.3807Z" fill="#4B5563"/>
</g>
<defs>
<clipPath id="clip0_316_299">
<rect width="86" height="100" fill="white" transform="translate(0.187744)"/>
</clipPath>
<clipPath id="clip1_316_299">
<rect width="64" height="64" fill="white" transform="translate(11.1877)"/>
</clipPath>
</defs>
</svg>
