<svg width="64" height="121" viewBox="0 0 64 121" fill="none" xmlns="http://www.w3.org/2000/svg">
<path d="M56.2668 39.9666L34.5334 18.2333C33.8667 17.5666 32.9334 17.1666 32.0001 17.1666C31.0667 17.1666 30.1334 17.5666 29.4667 18.2333L24.8001 22.9L30.2668 28.3666C30.8001 28.1 31.3334 27.9666 32.0001 27.9666C34.2667 27.9666 36.0001 29.7 36.0001 31.9666C36.0001 32.6333 35.8668 33.1666 35.6001 33.7L40.9334 39.0333C41.4668 38.7666 42.0001 38.6333 42.6667 38.6333C44.9334 38.6333 46.6667 40.3666 46.6667 42.6333C46.6667 44.9 44.9334 46.6333 42.6667 46.6333C40.4001 46.6333 38.6667 44.9 38.6667 42.6333C38.6667 41.9666 38.8001 41.4333 39.0667 40.9L33.7334 35.5666C33.6001 35.5666 33.4667 35.7 33.3334 35.7V49.5666C34.9334 50.1 36.0001 51.5666 36.0001 53.3C36.0001 55.5666 34.2667 57.3 32.0001 57.3C29.7334 57.3 28.0001 55.5666 28.0001 53.3C28.0001 51.5666 29.0667 50.1 30.6667 49.5666V35.5666C29.0667 35.0333 28.0001 33.5666 28.0001 31.8333C28.0001 31.1666 28.1334 30.6333 28.4001 30.1L22.9334 24.6333L7.73342 39.9666C7.06675 40.6333 6.66675 41.5666 6.66675 42.5C6.66675 43.4333 7.06675 44.3666 7.73342 45.0333L29.4667 66.7666C30.1334 67.4333 31.0667 67.8333 32.0001 67.8333C32.9334 67.8333 33.8667 67.4333 34.5334 66.7666L56.2668 45.0333C56.9334 44.3666 57.3334 43.4333 57.3334 42.5C57.3334 41.5666 56.9334 40.6333 56.2668 39.9666Z" fill="#F4511E"/>
<path d="M30.0341 94.5C29.8935 94.0696 29.7081 93.6839 29.478 93.343C29.2521 92.9979 28.9815 92.7038 28.6662 92.4609C28.3551 92.218 28.0014 92.0327 27.6051 91.9048C27.2088 91.777 26.7741 91.7131 26.3011 91.7131C25.5256 91.7131 24.8203 91.9134 24.1854 92.3139C23.5504 92.7145 23.0455 93.3047 22.6705 94.0845C22.2955 94.8643 22.108 95.821 22.108 96.9545C22.108 98.0881 22.2976 99.0447 22.6768 99.8246C23.0561 100.604 23.5696 101.195 24.2173 101.595C24.8651 101.996 25.5938 102.196 26.4034 102.196C27.1534 102.196 27.8139 102.036 28.3849 101.717C28.9602 101.393 29.4077 100.937 29.7273 100.349C30.0511 99.7564 30.2131 99.0597 30.2131 98.2585L30.6989 98.3608H26.7614V96.9545H31.7472V98.3608C31.7472 99.4389 31.517 100.376 31.0568 101.173C30.6009 101.97 29.9702 102.588 29.1648 103.027C28.3636 103.462 27.4432 103.679 26.4034 103.679C25.2443 103.679 24.2259 103.406 23.348 102.861C22.4744 102.315 21.7926 101.54 21.3026 100.534C20.8168 99.5284 20.5739 98.3352 20.5739 96.9545C20.5739 95.919 20.7124 94.9879 20.9893 94.1612C21.2706 93.3303 21.6669 92.6229 22.1783 92.0391C22.6896 91.4553 23.2947 91.0078 23.9936 90.6967C24.6925 90.3857 25.4616 90.2301 26.3011 90.2301C26.9915 90.2301 27.6349 90.3345 28.2315 90.5433C28.8324 90.7479 29.3672 91.0398 29.8359 91.419C30.3089 91.794 30.7031 92.2436 31.0185 92.7678C31.3338 93.2876 31.5511 93.8651 31.6705 94.5H30.0341ZM34.8729 103.5V93.6818H36.3814V103.5H34.8729ZM35.6399 92.0455C35.3459 92.0455 35.0923 91.9453 34.8793 91.745C34.6705 91.5447 34.5661 91.304 34.5661 91.0227C34.5661 90.7415 34.6705 90.5007 34.8793 90.3004C35.0923 90.1001 35.3459 90 35.6399 90C35.9339 90 36.1854 90.1001 36.3942 90.3004C36.6072 90.5007 36.7138 90.7415 36.7138 91.0227C36.7138 91.304 36.6072 91.5447 36.3942 91.745C36.1854 91.9453 35.9339 92.0455 35.6399 92.0455ZM43.4142 93.6818V94.9602H38.3262V93.6818H43.4142ZM39.8091 91.3295H41.3176V100.688C41.3176 101.114 41.3794 101.433 41.503 101.646C41.6309 101.855 41.7928 101.996 41.9888 102.068C42.1891 102.136 42.4 102.17 42.6216 102.17C42.7878 102.17 42.9242 102.162 43.0307 102.145C43.1373 102.124 43.2225 102.107 43.2864 102.094L43.5932 103.449C43.4909 103.487 43.3482 103.526 43.165 103.564C42.9817 103.607 42.7495 103.628 42.4682 103.628C42.0421 103.628 41.6245 103.536 41.2154 103.353C40.8105 103.17 40.4739 102.891 40.2054 102.516C39.9412 102.141 39.8091 101.668 39.8091 101.097V91.3295Z" fill="#4B5563"/>
</svg>
