<svg width="88" height="100" viewBox="0 0 88 100" fill="none" xmlns="http://www.w3.org/2000/svg">
<g clip-path="url(#clip0_316_266)">
<path d="M12 64V0H76V64H12Z" fill="#FFD600"/>
<path d="M53.8454 47.9058C55.0756 49.904 56.4125 51.8187 59.2445 51.8187C61.6231 51.8187 62.8712 50.6365 62.8712 49.0009C62.8712 47.0436 61.5805 46.3485 58.9636 45.2089L57.5289 44.5973C53.3885 42.8409 50.6347 40.64 50.6347 35.9911C50.6347 31.7067 53.9147 28.4462 59.04 28.4462C62.6898 28.4462 65.312 29.7102 67.2036 33.0205L62.7343 35.8773C61.7511 34.1209 60.688 33.4293 59.04 33.4293C57.3583 33.4293 56.2934 34.4907 56.2934 35.8773C56.2934 37.5911 57.36 38.2845 59.8223 39.3458L61.2569 39.9573C66.1369 42.0356 68.8889 44.1582 68.8889 48.9298C68.8889 54.0711 64.8285 56.8889 59.3778 56.8889C54.0463 56.8889 51.0187 54.2133 49.3334 50.9013L53.8454 47.9058ZM33.248 48.0516C34.1476 49.6622 35.5147 50.9013 37.4809 50.9013C39.3618 50.9013 40.4445 50.1582 40.4445 47.2693V28.4445H46.3698V48.1796C46.3698 54.1653 42.8978 56.8889 37.8276 56.8889C33.2463 56.8889 29.9396 53.7849 28.592 50.9013L33.248 48.0516Z" fill="#000001"/>
<path d="M6.59659 79.9091H8.18182V89.267C8.18182 90.1023 8.02841 90.8118 7.72159 91.3956C7.41477 91.9794 6.98224 92.4226 6.42401 92.7251C5.86577 93.0277 5.20739 93.179 4.44886 93.179C3.73295 93.179 3.09588 93.049 2.53764 92.7891C1.9794 92.5249 1.54048 92.1499 1.22088 91.6641C0.901278 91.1783 0.741477 90.6009 0.741477 89.9318H2.30114C2.30114 90.3026 2.39276 90.6264 2.57599 90.9034C2.76349 91.1761 3.01918 91.3892 3.34304 91.5426C3.6669 91.696 4.03551 91.7727 4.44886 91.7727C4.90483 91.7727 5.29261 91.6768 5.61222 91.4851C5.93182 91.2933 6.17472 91.0121 6.34091 90.6413C6.51136 90.2663 6.59659 89.8082 6.59659 89.267V79.9091ZM14.0433 93.2301C13.4212 93.2301 12.8565 93.1129 12.3494 92.8786C11.8423 92.6399 11.4396 92.2969 11.1413 91.8494C10.843 91.3977 10.6939 90.8523 10.6939 90.2131C10.6939 89.6506 10.8047 89.1946 11.0263 88.8452C11.2479 88.4915 11.544 88.2145 11.9148 88.0142C12.2855 87.8139 12.6946 87.6648 13.142 87.5668C13.5938 87.4645 14.0476 87.3835 14.5036 87.3239C15.1001 87.2472 15.5838 87.1896 15.9545 87.1513C16.3295 87.1087 16.6023 87.0384 16.7727 86.9403C16.9474 86.8423 17.0348 86.6719 17.0348 86.429V86.3778C17.0348 85.7472 16.8622 85.2571 16.517 84.9077C16.1761 84.5582 15.6584 84.3835 14.9638 84.3835C14.2436 84.3835 13.679 84.5412 13.2699 84.8565C12.8608 85.1719 12.5732 85.5085 12.407 85.8665L10.9751 85.3551C11.2308 84.7585 11.5717 84.294 11.9979 83.9616C12.4283 83.625 12.897 83.3906 13.4041 83.2585C13.9155 83.1222 14.4183 83.054 14.9126 83.054C15.228 83.054 15.5902 83.0923 15.9993 83.169C16.4126 83.2415 16.8111 83.3928 17.1946 83.6229C17.5824 83.853 17.9041 84.2003 18.1598 84.6648C18.4155 85.1293 18.5433 85.7514 18.5433 86.5312V93H17.0348V91.6705H16.9581C16.8558 91.8835 16.6854 92.1115 16.4467 92.3544C16.2081 92.5973 15.8906 92.804 15.4943 92.9744C15.098 93.1449 14.6143 93.2301 14.0433 93.2301ZM14.2734 91.875C14.87 91.875 15.3729 91.7578 15.782 91.5234C16.1953 91.2891 16.5064 90.9865 16.7152 90.6158C16.9283 90.245 17.0348 89.8551 17.0348 89.446V88.0653C16.9709 88.142 16.8303 88.2124 16.6129 88.2763C16.3999 88.3359 16.1527 88.3892 15.8714 88.4361C15.5945 88.4787 15.3239 88.517 15.0597 88.5511C14.7997 88.581 14.5888 88.6065 14.4268 88.6278C14.0348 88.679 13.6683 88.7621 13.3274 88.8771C12.9908 88.9879 12.718 89.1562 12.5092 89.3821C12.3047 89.6037 12.2024 89.9062 12.2024 90.2898C12.2024 90.8139 12.3963 91.2102 12.7841 91.4787C13.1761 91.7429 13.6726 91.875 14.2734 91.875ZM28.9735 83.1818L25.3429 93H23.8088L20.1781 83.1818H21.8145L24.5247 91.0057H24.627L27.3372 83.1818H28.9735ZM33.555 93.2301C32.9329 93.2301 32.3683 93.1129 31.8612 92.8786C31.354 92.6399 30.9513 92.2969 30.6531 91.8494C30.3548 91.3977 30.2056 90.8523 30.2056 90.2131C30.2056 89.6506 30.3164 89.1946 30.538 88.8452C30.7596 88.4915 31.0558 88.2145 31.4265 88.0142C31.7972 87.8139 32.2063 87.6648 32.6538 87.5668C33.1055 87.4645 33.5593 87.3835 34.0153 87.3239C34.6119 87.2472 35.0955 87.1896 35.4663 87.1513C35.8413 87.1087 36.114 87.0384 36.2844 86.9403C36.4592 86.8423 36.5465 86.6719 36.5465 86.429V86.3778C36.5465 85.7472 36.3739 85.2571 36.0288 84.9077C35.6879 84.5582 35.1701 84.3835 34.4755 84.3835C33.7553 84.3835 33.1907 84.5412 32.7816 84.8565C32.3725 85.1719 32.0849 85.5085 31.9187 85.8665L30.4869 85.3551C30.7425 84.7585 31.0835 84.294 31.5096 83.9616C31.94 83.625 32.4087 83.3906 32.9158 83.2585C33.4272 83.1222 33.93 83.054 34.4244 83.054C34.7397 83.054 35.1019 83.0923 35.511 83.169C35.9244 83.2415 36.3228 83.3928 36.7063 83.6229C37.0941 83.853 37.4158 84.2003 37.6715 84.6648C37.9272 85.1293 38.055 85.7514 38.055 86.5312V93H36.5465V91.6705H36.4698C36.3675 91.8835 36.1971 92.1115 35.9585 92.3544C35.7198 92.5973 35.4023 92.804 35.006 92.9744C34.6097 93.1449 34.1261 93.2301 33.555 93.2301ZM33.7852 91.875C34.3817 91.875 34.8846 91.7578 35.2937 91.5234C35.707 91.2891 36.0181 90.9865 36.2269 90.6158C36.44 90.245 36.5465 89.8551 36.5465 89.446V88.0653C36.4826 88.142 36.342 88.2124 36.1246 88.2763C35.9116 88.3359 35.6644 88.3892 35.3832 88.4361C35.1062 88.4787 34.8356 88.517 34.5714 88.5511C34.3114 88.581 34.1005 88.6065 33.9386 88.6278C33.5465 88.679 33.18 88.7621 32.8391 88.8771C32.5025 88.9879 32.2298 89.1562 32.021 89.3821C31.8164 89.6037 31.7141 89.9062 31.7141 90.2898C31.7141 90.8139 31.908 91.2102 32.2958 91.4787C32.6879 91.7429 33.1843 91.875 33.7852 91.875ZM47.763 85.3807L46.4078 85.7642C46.3226 85.5384 46.1969 85.3189 46.0307 85.1058C45.8688 84.8885 45.6472 84.7095 45.3659 84.5689C45.0847 84.4283 44.7246 84.358 44.2857 84.358C43.6848 84.358 43.1841 84.4964 42.7836 84.7734C42.3873 85.0462 42.1891 85.3935 42.1891 85.8153C42.1891 86.1903 42.3255 86.4865 42.5982 86.7038C42.8709 86.9212 43.2971 87.1023 43.8766 87.2472L45.334 87.6051C46.2118 87.8182 46.8659 88.1442 47.2963 88.5831C47.7267 89.0178 47.9419 89.5781 47.9419 90.2642C47.9419 90.8267 47.78 91.3295 47.4561 91.7727C47.1365 92.2159 46.6891 92.5653 46.1138 92.821C45.5385 93.0767 44.8695 93.2045 44.1067 93.2045C43.1053 93.2045 42.2765 92.9872 41.6202 92.5526C40.964 92.1179 40.5485 91.483 40.3738 90.6477L41.8056 90.2898C41.9419 90.8182 42.1998 91.2145 42.579 91.4787C42.9625 91.7429 43.4632 91.875 44.0811 91.875C44.7843 91.875 45.3425 91.7259 45.7559 91.4276C46.1735 91.125 46.3823 90.7628 46.3823 90.3409C46.3823 90 46.263 89.7145 46.0243 89.4844C45.7857 89.25 45.4192 89.0753 44.9249 88.9602L43.2885 88.5767C42.3894 88.3636 41.7289 88.0334 41.307 87.5859C40.8894 87.1342 40.6806 86.5696 40.6806 85.892C40.6806 85.3381 40.8361 84.848 41.1472 84.4219C41.4625 83.9957 41.8908 83.6612 42.432 83.4183C42.9775 83.1754 43.5953 83.054 44.2857 83.054C45.2573 83.054 46.0201 83.267 46.574 83.6932C47.1323 84.1193 47.5286 84.6818 47.763 85.3807ZM54.2013 93.2045C53.2809 93.2045 52.4883 92.9872 51.8235 92.5526C51.1587 92.1179 50.6474 91.5192 50.2894 90.7564C49.9315 89.9936 49.7525 89.1222 49.7525 88.142C49.7525 87.1449 49.9357 86.2649 50.3022 85.5021C50.6729 84.7351 51.1886 84.1364 51.8491 83.706C52.5138 83.2713 53.2894 83.054 54.1758 83.054C54.8661 83.054 55.4883 83.1818 56.0423 83.4375C56.5962 83.6932 57.0501 84.0511 57.4038 84.5114C57.7575 84.9716 57.9769 85.5085 58.0621 86.1222H56.5536C56.4386 85.6747 56.1829 85.2784 55.7866 84.9332C55.3945 84.5838 54.8661 84.4091 54.2013 84.4091C53.6133 84.4091 53.0977 84.5625 52.6545 84.8693C52.2156 85.1719 51.8725 85.6001 51.6254 86.1541C51.3825 86.7038 51.261 87.3494 51.261 88.0909C51.261 88.8494 51.3803 89.5099 51.619 90.0724C51.8619 90.6349 52.2028 91.0717 52.6417 91.3828C53.0849 91.6939 53.6048 91.8494 54.2013 91.8494C54.5934 91.8494 54.9492 91.7812 55.2688 91.6449C55.5884 91.5085 55.859 91.3125 56.0806 91.0568C56.3022 90.8011 56.4599 90.4943 56.5536 90.1364H58.0621C57.9769 90.7159 57.766 91.2379 57.4293 91.7024C57.0969 92.1626 56.6559 92.5291 56.1062 92.8018C55.5607 93.0703 54.9258 93.2045 54.2013 93.2045ZM60.2674 93V83.1818H61.7248V84.6648H61.8271C62.006 84.179 62.3299 83.7848 62.7987 83.4822C63.2674 83.1797 63.7958 83.0284 64.3839 83.0284C64.4947 83.0284 64.6332 83.0305 64.7994 83.0348C64.9656 83.0391 65.0913 83.0455 65.1765 83.054V84.5881C65.1254 84.5753 65.0082 84.5561 64.8249 84.5305C64.646 84.5007 64.4563 84.4858 64.256 84.4858C63.7788 84.4858 63.3526 84.5859 62.9776 84.7862C62.6069 84.9822 62.3129 85.255 62.0955 85.6044C61.8825 85.9496 61.7759 86.3437 61.7759 86.7869V93H60.2674ZM66.9647 93V83.1818H68.4732V93H66.9647ZM67.7317 81.5455C67.4377 81.5455 67.1841 81.4453 66.9711 81.245C66.7623 81.0447 66.6578 80.804 66.6578 80.5227C66.6578 80.2415 66.7623 80.0007 66.9711 79.8004C67.1841 79.6001 67.4377 79.5 67.7317 79.5C68.0257 79.5 68.2772 79.6001 68.486 79.8004C68.699 80.0007 68.8056 80.2415 68.8056 80.5227C68.8056 80.804 68.699 81.0447 68.486 81.245C68.2772 81.4453 68.0257 81.5455 67.7317 81.5455ZM71.2362 96.6818V83.1818H72.6935V84.7415H72.8725C72.9833 84.571 73.1367 84.3537 73.3327 84.0895C73.533 83.821 73.8185 83.5824 74.1893 83.3736C74.5643 83.1605 75.0714 83.054 75.7106 83.054C76.5373 83.054 77.266 83.2607 77.8967 83.674C78.5273 84.0874 79.0195 84.6733 79.3732 85.4318C79.7269 86.1903 79.9038 87.0852 79.9038 88.1165C79.9038 89.1562 79.7269 90.0575 79.3732 90.8203C79.0195 91.5788 78.5295 92.1669 77.9031 92.5845C77.2766 92.9979 76.5543 93.2045 75.7362 93.2045C75.1055 93.2045 74.6005 93.1001 74.2212 92.8913C73.842 92.6783 73.5501 92.4375 73.3455 92.169C73.141 91.8963 72.9833 91.6705 72.8725 91.4915H72.7447V96.6818H71.2362ZM72.7191 88.0909C72.7191 88.8324 72.8278 89.4865 73.0451 90.0533C73.2624 90.6158 73.5799 91.0568 73.9975 91.3764C74.4151 91.6918 74.9265 91.8494 75.5316 91.8494C76.1623 91.8494 76.6886 91.6832 77.1104 91.3509C77.5366 91.0142 77.8562 90.5625 78.0692 89.9957C78.2866 89.4247 78.3952 88.7898 78.3952 88.0909C78.3952 87.4006 78.2887 86.7784 78.0756 86.2244C77.8668 85.6662 77.5494 85.2251 77.1232 84.9013C76.7013 84.5732 76.1708 84.4091 75.5316 84.4091C74.918 84.4091 74.4023 84.5646 73.9847 84.8757C73.5671 85.1825 73.2518 85.6129 73.0387 86.1669C72.8256 86.7166 72.7191 87.358 72.7191 88.0909ZM86.4748 83.1818V84.4602H81.3867V83.1818H86.4748ZM82.8697 80.8295H84.3782V90.1875C84.3782 90.6136 84.44 90.9332 84.5636 91.1463C84.6914 91.3551 84.8533 91.4957 85.0494 91.5682C85.2496 91.6364 85.4606 91.6705 85.6822 91.6705C85.8484 91.6705 85.9847 91.6619 86.0913 91.6449C86.1978 91.6236 86.283 91.6065 86.3469 91.5938L86.6538 92.9489C86.5515 92.9872 86.4087 93.0256 86.2255 93.0639C86.0423 93.1065 85.81 93.1278 85.5288 93.1278C85.1026 93.1278 84.685 93.0362 84.2759 92.853C83.8711 92.6697 83.5344 92.3906 83.266 92.0156C83.0018 91.6406 82.8697 91.1676 82.8697 90.5966V80.8295Z" fill="#4B5563"/>
</g>
<defs>
<clipPath id="clip0_316_266">
<rect width="88" height="100" fill="white"/>
</clipPath>
</defs>
</svg>
