<svg width="85" height="121" viewBox="0 0 85 121" fill="none" xmlns="http://www.w3.org/2000/svg">
<g clip-path="url(#clip0_316_315)">
<path d="M48.0323 17.6332C45.3343 14.4463 43.0111 11.2096 42.5365 10.5373C42.4865 10.4876 42.4115 10.4876 42.3616 10.5373C41.8869 11.2096 39.5637 14.4463 36.8657 17.6332C13.7084 47.0376 40.513 66.8813 40.513 66.8813L40.7378 67.0306C40.9377 70.0932 41.4373 74.5 41.4373 74.5H42.4365H43.4358C43.4358 74.5 43.9354 70.118 44.1352 67.0306L44.36 66.8565C44.385 66.8565 71.1896 47.0376 48.0323 17.6332ZM42.4365 66.433C42.4365 66.433 41.2374 65.4123 40.9127 64.8893V64.8397L42.3616 32.8209C42.3616 32.7213 42.5115 32.7213 42.5115 32.8209L43.9604 64.8397V64.8893C43.6356 65.4123 42.4365 66.433 42.4365 66.433Z" fill="#00684A"/>
</g>
<path d="M1.90993 90.4091H3.80198L8.25084 101.276H8.40425L12.8531 90.4091H14.7452V103.5H13.2622V93.554H13.1344L9.04346 103.5H7.61164L3.52073 93.554H3.39289V103.5H1.90993V90.4091ZM21.7077 103.705C20.8213 103.705 20.0436 103.494 19.3746 103.072C18.7098 102.65 18.1899 102.06 17.8149 101.301C17.4442 100.543 17.2588 99.6562 17.2588 98.642C17.2588 97.6193 17.4442 96.7266 17.8149 95.9638C18.1899 95.201 18.7098 94.6087 19.3746 94.1868C20.0436 93.7649 20.8213 93.554 21.7077 93.554C22.5941 93.554 23.3696 93.7649 24.0344 94.1868C24.7034 94.6087 25.2233 95.201 25.5941 95.9638C25.9691 96.7266 26.1566 97.6193 26.1566 98.642C26.1566 99.6562 25.9691 100.543 25.5941 101.301C25.2233 102.06 24.7034 102.65 24.0344 103.072C23.3696 103.494 22.5941 103.705 21.7077 103.705ZM21.7077 102.349C22.381 102.349 22.935 102.177 23.3696 101.832C23.8043 101.487 24.126 101.033 24.3348 100.47C24.5436 99.9077 24.648 99.2983 24.648 98.642C24.648 97.9858 24.5436 97.3743 24.3348 96.8075C24.126 96.2408 23.8043 95.7827 23.3696 95.4332C22.935 95.0838 22.381 94.9091 21.7077 94.9091C21.0344 94.9091 20.4804 95.0838 20.0458 95.4332C19.6111 95.7827 19.2894 96.2408 19.0806 96.8075C18.8718 97.3743 18.7674 97.9858 18.7674 98.642C18.7674 99.2983 18.8718 99.9077 19.0806 100.47C19.2894 101.033 19.6111 101.487 20.0458 101.832C20.4804 102.177 21.0344 102.349 21.7077 102.349ZM29.9678 97.5938V103.5H28.4593V93.6818H29.9167V95.2159H30.0445C30.2746 94.7173 30.6241 94.3168 31.0928 94.0142C31.5616 93.7074 32.1667 93.554 32.9082 93.554C33.5729 93.554 34.1546 93.6903 34.6532 93.9631C35.1518 94.2315 35.5396 94.6406 35.8165 95.1903C36.0935 95.7358 36.232 96.4261 36.232 97.2614V103.5H34.7235V97.3636C34.7235 96.5923 34.5232 95.9915 34.1226 95.5611C33.7221 95.1264 33.1724 94.9091 32.4735 94.9091C31.992 94.9091 31.5616 95.0135 31.1823 95.2223C30.8073 95.4311 30.5111 95.7358 30.2938 96.1364C30.0765 96.5369 29.9678 97.0227 29.9678 97.5938ZM42.9517 107.386C42.223 107.386 41.5965 107.293 41.0724 107.105C40.5483 106.922 40.1115 106.679 39.762 106.376C39.4169 106.078 39.142 105.759 38.9375 105.418L40.1392 104.574C40.2755 104.753 40.4481 104.957 40.6569 105.188C40.8657 105.422 41.1512 105.624 41.5135 105.795C41.8799 105.969 42.3593 106.057 42.9517 106.057C43.7443 106.057 44.3984 105.865 44.914 105.482C45.4296 105.098 45.6875 104.497 45.6875 103.679V101.685H45.5596C45.4488 101.864 45.2911 102.085 45.0866 102.349C44.8863 102.609 44.5965 102.842 44.2173 103.046C43.8423 103.246 43.3352 103.347 42.696 103.347C41.9034 103.347 41.1917 103.159 40.561 102.784C39.9346 102.409 39.4382 101.864 39.0717 101.148C38.7095 100.432 38.5284 99.5625 38.5284 98.5398C38.5284 97.5341 38.7052 96.6584 39.0589 95.9126C39.4126 95.1626 39.9048 94.5831 40.5355 94.174C41.1661 93.7607 41.8948 93.554 42.7215 93.554C43.3608 93.554 43.8679 93.6605 44.2429 93.8736C44.6221 94.0824 44.9119 94.321 45.1122 94.5895C45.3167 94.8537 45.4744 95.071 45.5852 95.2415H45.7386V93.6818H47.196V103.781C47.196 104.625 47.0042 105.311 46.6207 105.839C46.2414 106.372 45.7301 106.762 45.0866 107.009C44.4474 107.261 43.7358 107.386 42.9517 107.386ZM42.9005 101.991C43.5056 101.991 44.017 101.853 44.4346 101.576C44.8522 101.299 45.1697 100.901 45.387 100.381C45.6044 99.8608 45.713 99.2386 45.713 98.5142C45.713 97.8068 45.6065 97.1825 45.3934 96.6413C45.1804 96.1001 44.865 95.6761 44.4474 95.3693C44.0298 95.0625 43.5142 94.9091 42.9005 94.9091C42.2613 94.9091 41.7286 95.071 41.3025 95.3949C40.8806 95.7187 40.5632 96.1534 40.3501 96.6989C40.1413 97.2443 40.0369 97.8494 40.0369 98.5142C40.0369 99.196 40.1434 99.799 40.3565 100.323C40.5738 100.843 40.8934 101.252 41.3153 101.55C41.7414 101.844 42.2698 101.991 42.9005 101.991ZM53.946 103.705C53.0596 103.705 52.2819 103.494 51.6129 103.072C50.9481 102.65 50.4282 102.06 50.0532 101.301C49.6825 100.543 49.4971 99.6562 49.4971 98.642C49.4971 97.6193 49.6825 96.7266 50.0532 95.9638C50.4282 95.201 50.9481 94.6087 51.6129 94.1868C52.2819 93.7649 53.0596 93.554 53.946 93.554C54.8323 93.554 55.6079 93.7649 56.2727 94.1868C56.9417 94.6087 57.4616 95.201 57.8323 95.9638C58.2073 96.7266 58.3948 97.6193 58.3948 98.642C58.3948 99.6562 58.2073 100.543 57.8323 101.301C57.4616 102.06 56.9417 102.65 56.2727 103.072C55.6079 103.494 54.8323 103.705 53.946 103.705ZM53.946 102.349C54.6193 102.349 55.1733 102.177 55.6079 101.832C56.0426 101.487 56.3643 101.033 56.5731 100.47C56.7819 99.9077 56.8863 99.2983 56.8863 98.642C56.8863 97.9858 56.7819 97.3743 56.5731 96.8075C56.3643 96.2408 56.0426 95.7827 55.6079 95.4332C55.1733 95.0838 54.6193 94.9091 53.946 94.9091C53.2727 94.9091 52.7187 95.0838 52.284 95.4332C51.8494 95.7827 51.5277 96.2408 51.3188 96.8075C51.11 97.3743 51.0056 97.9858 51.0056 98.642C51.0056 99.2983 51.11 99.9077 51.3188 100.47C51.5277 101.033 51.8494 101.487 52.284 101.832C52.7187 102.177 53.2727 102.349 53.946 102.349ZM64.9419 103.5H60.9021V90.4091H65.1209C66.3908 90.4091 67.4774 90.6712 68.3808 91.1953C69.2842 91.7152 69.9767 92.4631 70.4582 93.4389C70.9398 94.4105 71.1805 95.5739 71.1805 96.929C71.1805 98.2926 70.9376 99.4666 70.4518 100.451C69.966 101.431 69.2587 102.185 68.3297 102.714C67.4007 103.238 66.2714 103.5 64.9419 103.5ZM62.4873 102.094H64.8396C65.922 102.094 66.819 101.885 67.5307 101.467C68.2423 101.05 68.7729 100.455 69.1223 99.6839C69.4717 98.9126 69.6464 97.9943 69.6464 96.929C69.6464 95.8722 69.4739 94.9624 69.1287 94.1996C68.7835 93.4325 68.2679 92.8445 67.5818 92.4354C66.8957 92.022 66.0413 91.8153 65.0186 91.8153H62.4873V102.094ZM73.8396 103.5V90.4091H78.4163C79.3283 90.4091 80.0804 90.5668 80.6727 90.8821C81.265 91.1932 81.7061 91.6129 81.9959 92.1413C82.2856 92.6655 82.4305 93.2472 82.4305 93.8864C82.4305 94.4489 82.3304 94.9134 82.1301 95.2798C81.9341 95.6463 81.6741 95.9361 81.3503 96.1491C81.0307 96.3622 80.6834 96.5199 80.3084 96.6222V96.75C80.7089 96.7756 81.1116 96.9162 81.5165 97.1719C81.9213 97.4276 82.2601 97.794 82.5328 98.2713C82.8055 98.7486 82.9419 99.3324 82.9419 100.023C82.9419 100.679 82.7927 101.269 82.4945 101.793C82.1962 102.317 81.7253 102.733 81.0818 103.04C80.4383 103.347 79.601 103.5 78.5697 103.5H73.8396ZM75.4248 102.094H78.5697C79.6052 102.094 80.3403 101.893 80.775 101.493C81.2139 101.088 81.4334 100.598 81.4334 100.023C81.4334 99.5795 81.3204 99.1705 81.0946 98.7955C80.8687 98.4162 80.547 98.1136 80.1294 97.8878C79.7118 97.6577 79.2175 97.5426 78.6464 97.5426H75.4248V102.094ZM75.4248 96.1619H78.3652C78.8425 96.1619 79.2729 96.0682 79.6564 95.8807C80.0442 95.6932 80.351 95.429 80.5768 95.0881C80.807 94.7472 80.922 94.3466 80.922 93.8864C80.922 93.3111 80.7217 92.8232 80.3212 92.4226C79.9206 92.0178 79.2856 91.8153 78.4163 91.8153H75.4248V96.1619Z" fill="#4B5563"/>
<defs>
<clipPath id="clip0_316_315">
<rect width="29.7674" height="64" fill="white" transform="translate(27.4409 10.5)"/>
</clipPath>
</defs>
</svg>
