<svg width="67" height="100" viewBox="0 0 67 100" fill="none" xmlns="http://www.w3.org/2000/svg">
<g clip-path="url(#clip0_316_303)">
<path fill-rule="evenodd" clip-rule="evenodd" d="M38.349 1.06177C37.8973 1.06177 37.4777 1.15886 37.0905 1.2883C37.9134 1.83845 38.3652 2.5666 38.5911 3.39183C38.6072 3.50509 38.6395 3.586 38.6556 3.69926C38.6718 3.79635 38.6879 3.89344 38.6879 3.99053C38.7524 5.41445 38.3168 5.59244 38.0102 6.43385C37.5423 7.51798 37.6714 8.68301 38.2361 9.6215C38.2845 9.73477 38.349 9.86421 38.4297 9.97748C37.8166 5.8837 41.2211 5.26882 41.8503 3.99053C41.8987 2.87404 40.979 2.12971 40.253 1.61192C39.5592 1.19122 38.9299 1.06177 38.349 1.06177ZM43.48 1.98408C43.4154 2.35624 43.4638 2.25916 43.4477 2.45333C43.4316 2.58278 43.4316 2.74459 43.4155 2.87404C43.3832 3.00348 43.3509 3.13293 43.3025 3.26238C43.2703 3.39183 43.2219 3.52128 43.1735 3.65072C43.1089 3.78018 43.0605 3.89344 42.996 4.02288C42.9476 4.08764 42.9153 4.15233 42.8669 4.21706C42.8346 4.2656 42.8023 4.31414 42.7701 4.36269C42.6894 4.47596 42.6087 4.58922 42.5281 4.6863C42.4312 4.78339 42.3506 4.89666 42.2376 4.97757V4.99377C42.1408 5.07467 42.044 5.17176 41.9311 5.25266C41.5922 5.51155 41.205 5.70573 40.85 5.94844C40.7371 6.02935 40.6241 6.09407 40.5273 6.19116C40.4144 6.27206 40.3176 6.35296 40.2207 6.45005C40.1078 6.54714 40.0271 6.64423 39.9303 6.75749C39.8496 6.85458 39.7528 6.96784 39.6883 7.08111C39.6076 7.19438 39.5269 7.30765 39.4624 7.42091C39.3978 7.55035 39.3495 7.66363 39.2849 7.79307C39.2365 7.92252 39.1881 8.03579 39.1558 8.16523C39.1074 8.31086 39.0752 8.44031 39.0429 8.56976C39.0267 8.63451 39.0267 8.71539 39.0106 8.78011C38.9945 8.84486 38.9945 8.90956 38.9784 8.97429C38.9784 9.10373 38.9622 9.24936 38.9622 9.37881C38.9622 9.47589 38.9622 9.57298 38.9784 9.67007C38.9784 9.79951 38.9946 9.92896 39.0268 10.0746C39.043 10.204 39.0752 10.3335 39.1075 10.4629C39.1559 10.5924 39.1882 10.7218 39.2366 10.8513C39.2688 10.9322 39.3172 11.0131 39.3495 11.0778L35.6385 9.6377C35.0092 9.45971 34.3961 9.29791 33.7668 9.15228C33.4279 9.07137 33.0891 8.99046 32.7503 8.90956C31.7822 8.71539 30.7979 8.56976 29.8137 8.47268C29.7815 8.47268 29.7653 8.45647 29.733 8.45647C28.7649 8.35939 27.813 8.31085 26.8449 8.31085C26.1349 8.31085 25.425 8.34318 24.7312 8.39175C23.7469 8.4565 22.7627 8.58592 21.7785 8.74773C21.5364 8.78007 21.2944 8.82864 21.0524 8.87718C20.5522 8.97426 20.0681 9.08753 19.6002 9.2008C19.3582 9.26555 19.1162 9.33025 18.8741 9.39497C18.6321 9.49205 18.4062 9.60532 18.1803 9.70241C18.0028 9.78331 17.8254 9.86422 17.6479 9.94513C17.6156 9.96133 17.5833 9.96133 17.5672 9.97746C17.4059 10.0584 17.2606 10.1231 17.1154 10.204C17.067 10.2202 17.0347 10.2363 17.0025 10.2525C16.825 10.3334 16.6475 10.4305 16.5023 10.5114C16.3893 10.56 16.2764 10.6247 16.1796 10.6732C16.1312 10.7056 16.0666 10.738 16.0344 10.7541C15.8892 10.8351 15.7439 10.916 15.6149 10.9969C15.4697 11.0778 15.3406 11.1587 15.2276 11.2396C15.1147 11.3205 15.0017 11.3852 14.9049 11.4661C14.8888 11.4823 14.8727 11.4823 14.8565 11.4984C14.7597 11.5632 14.6468 11.6441 14.55 11.725C14.55 11.725 14.5338 11.7412 14.5177 11.7573C14.437 11.8221 14.3564 11.8868 14.2757 11.9515C14.2434 11.9677 14.2111 12 14.1789 12.0162C14.0982 12.081 14.0175 12.1619 13.9369 12.2266C13.9207 12.2589 13.8884 12.2751 13.8723 12.2913C13.7755 12.3884 13.6787 12.4693 13.5819 12.5664C13.5657 12.5664 13.5657 12.5826 13.5496 12.5988C13.4528 12.6797 13.356 12.7767 13.2592 12.8738C13.243 12.89 13.243 12.9062 13.2269 12.9062C13.1463 12.9871 13.0656 13.068 12.9849 13.1651C12.9527 13.1974 12.9042 13.2298 12.872 13.2621C12.7913 13.3592 12.6945 13.4563 12.5977 13.5534C12.5815 13.5857 12.5493 13.6019 12.5331 13.6343C12.404 13.7638 12.2911 13.8932 12.162 14.0227C12.1458 14.0389 12.1298 14.055 12.1136 14.0712C11.8554 14.3463 11.5811 14.6213 11.2907 14.8641C11.0003 15.123 10.6937 15.3657 10.3871 15.576C10.0644 15.8026 9.75788 15.9967 9.41904 16.1909C9.09634 16.3689 8.7575 16.5307 8.40253 16.6763C8.06369 16.822 7.70873 16.9514 7.35376 17.0647C6.67608 17.2103 5.98228 17.4854 5.38528 17.5339C5.2562 17.5339 5.11098 17.5663 4.98191 17.5825C4.83669 17.6148 4.70761 17.6472 4.57853 17.6796C4.44945 17.7281 4.32037 17.7766 4.19129 17.8252C4.06221 17.8737 3.93313 17.9384 3.80405 18.0032C3.6911 18.0841 3.56203 18.1488 3.44908 18.2297C3.33613 18.3106 3.22319 18.4077 3.12638 18.5048C3.01343 18.5857 2.90049 18.699 2.80368 18.796C2.70686 18.9093 2.61005 19.0064 2.52938 19.1197C2.44871 19.2491 2.3519 19.3624 2.28735 19.4918C2.20668 19.6051 2.12601 19.7345 2.06146 19.864C1.9969 20.0096 1.93238 20.1391 1.88398 20.2847C1.83557 20.4141 1.78717 20.5598 1.73876 20.7054C1.70652 20.8348 1.6742 20.9643 1.65809 21.0937C1.65809 21.11 1.64193 21.1261 1.64193 21.1423C1.60968 21.2879 1.60968 21.4821 1.59352 21.5792C1.57736 21.6924 1.56128 21.7895 1.56128 21.9028C1.56128 21.9675 1.56128 22.0484 1.57744 22.1131C1.5936 22.2264 1.60968 22.3235 1.64201 22.4206C1.67425 22.5177 1.70657 22.6147 1.75495 22.7118V22.728C1.80335 22.8251 1.86789 22.9222 1.93243 23.0193C1.997 23.1164 2.06152 23.2135 2.14219 23.3106C2.22286 23.3915 2.31967 23.4885 2.41648 23.5695C2.5133 23.6665 2.61011 23.7474 2.72305 23.8283C3.11029 24.1681 3.2071 24.2814 3.70729 24.5403C3.78796 24.5889 3.86864 24.6212 3.96545 24.6698C3.98161 24.6698 3.9977 24.686 4.01386 24.686C4.01386 24.7183 4.01386 24.7345 4.03002 24.7669C4.04618 24.8963 4.07842 25.0258 4.11069 25.1552C4.14294 25.3008 4.19137 25.4303 4.23978 25.5436C4.28818 25.6406 4.32045 25.7377 4.36886 25.8348C4.38502 25.8672 4.4011 25.8996 4.41726 25.9157C4.48183 26.0452 4.54634 26.1584 4.61088 26.2717C4.69156 26.385 4.77223 26.4982 4.8529 26.6115C4.93358 26.7086 5.03039 26.8219 5.1272 26.9189C5.22401 27.016 5.32082 27.0969 5.43377 27.194C5.43377 27.194 5.44993 27.2102 5.46602 27.2102C5.56283 27.2911 5.65964 27.3721 5.75645 27.4368C5.86939 27.5177 5.98234 27.5824 6.11142 27.6471C6.22437 27.7119 6.35344 27.7766 6.48252 27.8251C6.57933 27.8737 6.69227 27.906 6.80522 27.9384C6.82139 27.9546 6.83747 27.9546 6.86979 27.9707C6.93435 27.987 7.015 28.0031 7.07954 28.0193C7.03114 28.893 7.01497 29.7183 7.14411 30.0095C7.28932 30.3331 7.99926 29.3461 8.7092 28.2134C8.61239 29.3299 8.54785 30.6406 8.7092 31.0289C8.88669 31.4334 9.85479 30.1713 10.6938 28.7798C22.1335 26.1261 32.5729 34.0548 33.6701 45.252C33.4603 43.5044 31.3144 42.5336 30.3302 42.7763C29.8461 43.9737 29.0232 45.5109 27.7001 46.4656C27.8131 45.3976 27.7647 44.2973 27.5388 43.2294C27.1838 44.718 26.49 46.1096 25.538 47.307C24.0052 47.4202 22.4724 46.6759 21.6656 45.5594C21.6011 45.5109 21.585 45.4138 21.5365 45.3491C21.4881 45.2358 21.4397 45.1226 21.4075 45.0093C21.3591 44.896 21.3268 44.7827 21.3107 44.6695C21.2945 44.5562 21.2945 44.4429 21.2945 44.3135C21.2945 44.2326 21.2945 44.1517 21.2945 44.0708C21.3107 43.9575 21.3429 43.8442 21.3752 43.731C21.4074 43.6177 21.4397 43.5044 21.4881 43.3912C21.5527 43.2779 21.6011 43.1646 21.6817 43.0514C21.956 42.2747 21.956 41.6436 21.4559 41.2715C21.359 41.2067 21.2622 41.1582 21.1493 41.1097C21.0847 41.0935 21.0041 41.0611 20.9395 41.0449C20.8911 41.0287 20.8589 41.0126 20.8105 40.9964C20.6975 40.964 20.5846 40.9316 20.4716 40.9155C20.3587 40.8831 20.2457 40.8669 20.1328 40.8669C20.0198 40.8507 19.8907 40.8346 19.7778 40.8346C19.6971 40.8346 19.6165 40.8508 19.5358 40.8508C19.4067 40.8508 19.2938 40.867 19.1808 40.8993C19.0679 40.9156 18.9549 40.9317 18.842 40.9641C18.729 40.9964 18.6161 41.0288 18.5031 41.0774C18.3902 41.1259 18.2934 41.1744 18.1804 41.223C18.0836 41.2715 17.9868 41.3362 17.8739 41.3848C14.1144 43.8443 16.3572 49.6047 18.9226 51.2714C17.9545 51.4493 16.9703 51.6597 16.696 51.8701C16.6799 51.8863 16.6638 51.9024 16.6638 51.9024C17.3576 52.3231 18.0837 52.6791 18.842 52.9865C19.8746 53.3263 20.9718 53.6338 21.4559 53.7632V53.7794C22.7951 54.0545 24.1504 54.1516 25.5219 54.0707C32.6697 53.5691 38.5267 48.1161 39.5917 40.9317C39.6239 41.0773 39.6562 41.2068 39.6885 41.3524C39.7369 41.6437 39.8014 41.9511 39.8337 42.2586V42.2748C39.8659 42.4204 39.8821 42.566 39.8982 42.6955V42.7602C39.9144 42.9059 39.9305 43.0515 39.9305 43.1809C39.9466 43.3589 39.9627 43.5369 39.9627 43.7149V43.9738C39.9627 44.0547 39.9789 44.1518 39.9789 44.2327C39.9789 44.3298 39.9627 44.4269 39.9627 44.524V44.7505C39.9627 44.8638 39.9466 44.9608 39.9466 45.0741C39.9466 45.1389 39.9466 45.2036 39.9304 45.2845C39.9304 45.3977 39.9142 45.511 39.9142 45.6404C39.8981 45.689 39.8981 45.7375 39.8981 45.7861C39.8819 45.9155 39.8658 46.0288 39.8497 46.1582C39.8497 46.2068 39.8497 46.2553 39.8335 46.3039C39.8173 46.4657 39.7851 46.6113 39.7689 46.7731V46.7893V46.8055C39.7367 46.9512 39.7044 47.113 39.6721 47.2586V47.3072C39.6399 47.4528 39.6076 47.5984 39.5753 47.744C39.5753 47.7603 39.5592 47.7926 39.5592 47.8088C39.5269 47.9544 39.4946 48.1 39.4462 48.2457V48.2942C39.3978 48.456 39.3494 48.6016 39.3171 48.7473C39.301 48.7635 39.301 48.7796 39.301 48.7796C39.2526 48.9414 39.2042 49.1032 39.1558 49.265C39.0912 49.4269 39.0428 49.5725 38.9783 49.7343C38.9137 49.8961 38.8653 50.0579 38.8008 50.2035C38.7362 50.3654 38.6717 50.511 38.6072 50.6728H38.591C38.5264 50.8184 38.4619 50.9802 38.3812 51.1259C38.3651 51.1744 38.349 51.2068 38.3328 51.2391C38.3167 51.2553 38.3167 51.2715 38.3006 51.2877C37.2518 53.4074 35.7028 55.2682 33.7667 56.7245C33.6376 56.8054 33.5085 56.9025 33.3794 56.9995C33.3472 57.0319 33.2987 57.0481 33.2665 57.0804C33.1535 57.1614 33.0406 57.2423 32.9115 57.3232L32.9599 57.4203H32.9761C33.2019 57.3879 33.4278 57.3555 33.6537 57.3232H33.6699C34.0894 57.2584 34.5089 57.1775 34.9284 57.0966C35.0414 57.0804 35.1704 57.0481 35.2834 57.0157C35.3641 56.9995 35.4286 56.9834 35.5093 56.9672C35.6222 56.951 35.7352 56.9186 35.8481 56.9024C35.9449 56.8701 36.0417 56.8539 36.1385 56.8215C37.752 56.4332 39.3172 55.8992 40.8177 55.2682C38.2522 58.7794 34.8155 61.6111 30.7978 63.4719C32.6534 63.3425 34.5089 63.035 36.2999 62.5172C42.8023 60.5917 48.2721 56.2066 51.5475 50.3006C50.886 54.0384 49.4015 57.5982 47.2072 60.705C48.7723 59.6694 50.2083 58.472 51.5152 57.1128C55.1295 53.3264 57.5013 48.5207 58.3081 43.359C58.8567 45.9156 59.018 48.5531 58.776 51.1582C70.4255 34.8639 59.7441 17.971 55.2747 13.5213C55.2585 13.4889 55.2424 13.4727 55.2424 13.4404C55.2263 13.4566 55.2263 13.4566 55.2263 13.4727C55.2263 13.4565 55.2263 13.4565 55.2101 13.4404C55.2101 13.6345 55.194 13.8287 55.1779 14.0229C55.1295 14.395 55.0811 14.751 55.0165 15.107C54.9358 15.463 54.839 15.8189 54.7422 16.1749C54.6293 16.5147 54.5002 16.8707 54.355 17.2105C54.2098 17.5341 54.0484 17.8739 53.8709 18.1976C53.6934 18.505 53.4998 18.8286 53.2901 19.1199C53.0803 19.4273 52.8544 19.7186 52.6285 19.9936C52.3865 20.2849 52.1283 20.5438 51.8702 20.8027C51.7088 20.9483 51.5636 21.0778 51.4023 21.2072C51.2732 21.3205 51.1602 21.4176 51.0312 21.5308C50.7407 21.7574 50.4503 21.9677 50.1276 22.1619C49.821 22.3561 49.4983 22.5502 49.1756 22.712C48.8368 22.8739 48.498 23.0195 48.1591 23.1651C47.8203 23.2946 47.4653 23.4078 47.1103 23.5049C46.7554 23.602 46.3843 23.6829 46.0293 23.7476C45.6582 23.8124 45.2871 23.8447 44.9321 23.8771C44.674 23.8933 44.4158 23.9094 44.1576 23.9094C43.7865 23.9094 43.4154 23.8771 43.0605 23.8447C42.6894 23.8123 42.3182 23.7638 41.9633 23.6828C41.5922 23.6181 41.2372 23.521 40.8822 23.4078H40.8661C41.221 23.3754 41.576 23.343 41.931 23.2783C42.3021 23.2136 42.6571 23.1327 43.012 23.0356C43.367 22.9385 43.722 22.8253 44.0608 22.6958C44.4158 22.5664 44.7546 22.4046 45.0773 22.2427C45.4162 22.0809 45.7227 21.9029 46.0454 21.7088C46.352 21.4984 46.6585 21.2881 46.949 21.0615C47.2394 20.835 47.5137 20.5923 47.7719 20.3334C48.0462 20.0907 48.2882 19.8156 48.5302 19.5405C48.7722 19.2493 48.9981 18.958 49.2079 18.6667C49.2401 18.6182 49.2725 18.5535 49.3047 18.5049C49.466 18.246 49.6274 17.9871 49.7726 17.7282C49.9501 17.4046 50.1114 17.081 50.2567 16.7412C50.4019 16.4014 50.531 16.0616 50.6439 15.7056C50.7568 15.3658 50.8375 15.0098 50.9182 14.6539C50.9828 14.2817 51.0473 13.9257 51.0795 13.5697C51.1118 13.1976 51.1441 12.8254 51.1441 12.4694C51.1441 12.2105 51.1279 11.9516 51.1119 11.6928C51.0796 11.3206 51.0312 10.9646 50.9828 10.6086C50.9182 10.2365 50.8376 9.88049 50.7408 9.5245C50.6278 9.18471 50.5149 8.82872 50.3858 8.48893C50.2567 8.14912 50.0954 7.80932 49.934 7.4857C49.7565 7.16208 49.579 6.83846 49.3854 6.53103C49.1757 6.22359 48.9659 5.93233 48.74 5.64107C48.498 5.36599 48.256 5.09092 47.9978 4.81584C47.8687 4.6864 47.7235 4.54077 47.5783 4.41132C46.8522 3.84498 46.0939 3.31101 45.3355 2.82558C45.2226 2.76084 45.1258 2.71232 45.0128 2.66377C44.4804 2.32397 43.9802 2.14589 43.48 1.98408Z" fill="#E0234E"/>
<path d="M15.5597 79.9091V93H14.0256L6.89205 82.7216H6.7642V93H5.17898V79.9091H6.71307L13.8722 90.2131H14V79.9091H15.5597ZM22.6436 93.2045C21.6976 93.2045 20.8816 92.9957 20.1955 92.5781C19.5137 92.1562 18.9874 91.5682 18.6167 90.8139C18.2502 90.0554 18.0669 89.1733 18.0669 88.1676C18.0669 87.1619 18.2502 86.2756 18.6167 85.5085C18.9874 84.7372 19.503 84.1364 20.1635 83.706C20.8283 83.2713 21.6039 83.054 22.4902 83.054C23.0016 83.054 23.5066 83.1392 24.0051 83.3097C24.5037 83.4801 24.9576 83.7571 25.3667 84.1406C25.7757 84.5199 26.1017 85.0227 26.3446 85.6491C26.5875 86.2756 26.709 87.0469 26.709 87.9631V88.6023H19.1408V87.2983H25.1749C25.1749 86.7443 25.0641 86.25 24.8425 85.8153C24.6252 85.3807 24.3141 85.0376 23.9093 84.7862C23.5087 84.5348 23.0357 84.4091 22.4902 84.4091C21.8894 84.4091 21.3695 84.5582 20.9306 84.8565C20.4959 85.1506 20.1614 85.5341 19.927 86.0071C19.6926 86.4801 19.5755 86.9872 19.5755 87.5284V88.3977C19.5755 89.1392 19.7033 89.7678 19.959 90.2834C20.2189 90.7947 20.579 91.1847 21.0392 91.4531C21.4995 91.7173 22.0343 91.8494 22.6436 91.8494C23.04 91.8494 23.3979 91.794 23.7175 91.6832C24.0414 91.5682 24.3205 91.3977 24.5549 91.1719C24.7892 90.9418 24.9703 90.6562 25.0982 90.3153L26.5556 90.7244C26.4022 91.2188 26.1444 91.6534 25.7821 92.0284C25.4199 92.3991 24.9725 92.6889 24.4398 92.8977C23.9071 93.1023 23.3084 93.2045 22.6436 93.2045ZM35.9583 85.3807L34.6032 85.7642C34.5179 85.5384 34.3922 85.3189 34.226 85.1058C34.0641 84.8885 33.8425 84.7095 33.5613 84.5689C33.28 84.4283 32.9199 84.358 32.481 84.358C31.8801 84.358 31.3794 84.4964 30.9789 84.7734C30.5826 85.0462 30.3844 85.3935 30.3844 85.8153C30.3844 86.1903 30.5208 86.4865 30.7935 86.7038C31.0662 86.9212 31.4924 87.1023 32.0719 87.2472L33.5293 87.6051C34.4071 87.8182 35.0613 88.1442 35.4917 88.5831C35.9221 89.0178 36.1373 89.5781 36.1373 90.2642C36.1373 90.8267 35.9753 91.3295 35.6515 91.7727C35.3319 92.2159 34.8844 92.5653 34.3091 92.821C33.7338 93.0767 33.0648 93.2045 32.302 93.2045C31.3006 93.2045 30.4718 92.9872 29.8155 92.5526C29.1593 92.1179 28.7438 91.483 28.5691 90.6477L30.0009 90.2898C30.1373 90.8182 30.3951 91.2145 30.7743 91.4787C31.1578 91.7429 31.6586 91.875 32.2765 91.875C32.9796 91.875 33.5378 91.7259 33.9512 91.4276C34.3688 91.125 34.5776 90.7628 34.5776 90.3409C34.5776 90 34.4583 89.7145 34.2196 89.4844C33.981 89.25 33.6145 89.0753 33.1202 88.9602L31.4838 88.5767C30.5847 88.3636 29.9242 88.0334 29.5023 87.5859C29.0847 87.1342 28.8759 86.5696 28.8759 85.892C28.8759 85.3381 29.0314 84.848 29.3425 84.4219C29.6578 83.9957 30.0861 83.6612 30.6273 83.4183C31.1728 83.1754 31.7907 83.054 32.481 83.054C33.4526 83.054 34.2154 83.267 34.7694 83.6932C35.3276 84.1193 35.7239 84.6818 35.9583 85.3807ZM42.6779 83.1818V84.4602H37.5898V83.1818H42.6779ZM39.0728 80.8295H40.5813V90.1875C40.5813 90.6136 40.6431 90.9332 40.7667 91.1463C40.8945 91.3551 41.0565 91.4957 41.2525 91.5682C41.4528 91.6364 41.6637 91.6705 41.8853 91.6705C42.0515 91.6705 42.1879 91.6619 42.2944 91.6449C42.4009 91.6236 42.4862 91.6065 42.5501 91.5938L42.8569 92.9489C42.7546 92.9872 42.6119 93.0256 42.4286 93.0639C42.2454 93.1065 42.0131 93.1278 41.7319 93.1278C41.3058 93.1278 40.8881 93.0362 40.479 92.853C40.0742 92.6697 39.7376 92.3906 39.4691 92.0156C39.2049 91.6406 39.0728 91.1676 39.0728 90.5966V80.8295ZM46.0465 93.1023C45.7312 93.1023 45.4606 92.9893 45.2347 92.7635C45.0089 92.5376 44.896 92.267 44.896 91.9517C44.896 91.6364 45.0089 91.3658 45.2347 91.1399C45.4606 90.9141 45.7312 90.8011 46.0465 90.8011C46.3619 90.8011 46.6325 90.9141 46.8583 91.1399C47.0842 91.3658 47.1971 91.6364 47.1971 91.9517C47.1971 92.1605 47.1438 92.3523 47.0373 92.527C46.935 92.7017 46.7965 92.8423 46.6218 92.9489C46.4513 93.0511 46.2596 93.1023 46.0465 93.1023ZM49.9041 83.1818H51.4126V93.7159C51.4126 94.321 51.3082 94.8452 51.0994 95.2884C50.8949 95.7315 50.5838 96.0746 50.1662 96.3175C49.7528 96.5604 49.2308 96.6818 48.6001 96.6818C48.549 96.6818 48.4979 96.6818 48.4467 96.6818C48.3956 96.6818 48.3445 96.6818 48.2933 96.6818V95.2756C48.3445 95.2756 48.3913 95.2756 48.4339 95.2756C48.4766 95.2756 48.5234 95.2756 48.5746 95.2756C49.0348 95.2756 49.3714 95.1392 49.5845 94.8665C49.7976 94.598 49.9041 94.2145 49.9041 93.7159V83.1818ZM50.6456 81.5455C50.3516 81.5455 50.098 81.4453 49.8849 81.245C49.6761 81.0447 49.5717 80.804 49.5717 80.5227C49.5717 80.2415 49.6761 80.0007 49.8849 79.8004C50.098 79.6001 50.3516 79.5 50.6456 79.5C50.9396 79.5 51.1911 79.6001 51.3999 79.8004C51.6129 80.0007 51.7195 80.2415 51.7195 80.5227C51.7195 80.804 51.6129 81.0447 51.3999 81.245C51.1911 81.4453 50.9396 81.5455 50.6456 81.5455ZM61.1301 85.3807L59.775 85.7642C59.6898 85.5384 59.5641 85.3189 59.3979 85.1058C59.236 84.8885 59.0144 84.7095 58.7331 84.5689C58.4519 84.4283 58.0918 84.358 57.6529 84.358C57.052 84.358 56.5513 84.4964 56.1507 84.7734C55.7544 85.0462 55.5563 85.3935 55.5563 85.8153C55.5563 86.1903 55.6926 86.4865 55.9654 86.7038C56.2381 86.9212 56.6642 87.1023 57.2438 87.2472L58.7012 87.6051C59.579 87.8182 60.2331 88.1442 60.6635 88.5831C61.0939 89.0178 61.3091 89.5781 61.3091 90.2642C61.3091 90.8267 61.1472 91.3295 60.8233 91.7727C60.5037 92.2159 60.0563 92.5653 59.481 92.821C58.9057 93.0767 58.2367 93.2045 57.4739 93.2045C56.4725 93.2045 55.6436 92.9872 54.9874 92.5526C54.3311 92.1179 53.9157 91.483 53.7409 90.6477L55.1728 90.2898C55.3091 90.8182 55.5669 91.2145 55.9462 91.4787C56.3297 91.7429 56.8304 91.875 57.4483 91.875C58.1515 91.875 58.7097 91.7259 59.123 91.4276C59.5407 91.125 59.7495 90.7628 59.7495 90.3409C59.7495 90 59.6301 89.7145 59.3915 89.4844C59.1529 89.25 58.7864 89.0753 58.2921 88.9602L56.6557 88.5767C55.7566 88.3636 55.0961 88.0334 54.6742 87.5859C54.2566 87.1342 54.0478 86.5696 54.0478 85.892C54.0478 85.3381 54.2033 84.848 54.5144 84.4219C54.8297 83.9957 55.258 83.6612 55.7992 83.4183C56.3446 83.1754 56.9625 83.054 57.6529 83.054C58.6245 83.054 59.3873 83.267 59.9412 83.6932C60.4995 84.1193 60.8958 84.6818 61.1301 85.3807Z" fill="#4B5563"/>
</g>
<defs>
<clipPath id="clip0_316_303">
<rect width="66.0645" height="100" fill="white" transform="translate(0.0615234)"/>
</clipPath>
</defs>
</svg>
