<svg width="65" height="100" viewBox="0 0 65 100" fill="none" xmlns="http://www.w3.org/2000/svg">
<g clip-path="url(#clip0_316_284)">
<g clip-path="url(#clip1_316_284)">
<mask id="mask0_316_284" style="mask-type:alpha" maskUnits="userSpaceOnUse" x="0" y="0" width="65" height="64">
<path d="M32.4399 64C50.1131 64 64.4399 49.6731 64.4399 32C64.4399 14.3269 50.1131 0 32.4399 0C14.7668 0 0.439941 14.3269 0.439941 32C0.439941 49.6731 14.7668 64 32.4399 64Z" fill="black"/>
</mask>
<g mask="url(#mask0_316_284)">
<path d="M32.4399 62.9333C49.5239 62.9333 63.3733 49.084 63.3733 32C63.3733 14.916 49.5239 1.06665 32.4399 1.06665C15.3559 1.06665 1.50659 14.916 1.50659 32C1.50659 49.084 15.3559 62.9333 32.4399 62.9333Z" fill="black" stroke="white" stroke-width="6"/>
<path d="M53.5983 56.0071L25.0237 19.2H19.6399V44.7893H23.947V24.6697L50.2173 58.6115C51.4027 57.8183 52.532 56.9475 53.5983 56.0071Z" fill="url(#paint0_linear_316_284)"/>
<path d="M45.5955 19.2H41.3289V44.8H45.5955V19.2Z" fill="url(#paint1_linear_316_284)"/>
</g>
</g>
<path d="M14.9059 79.9091V93H13.3718L6.23824 82.7216H6.1104V93H4.52517V79.9091H6.05926L13.2184 90.2131H13.3462V79.9091H14.9059ZM21.9898 93.2045C21.0438 93.2045 20.2278 92.9957 19.5417 92.5781C18.8599 92.1562 18.3336 91.5682 17.9628 90.8139C17.5964 90.0554 17.4131 89.1733 17.4131 88.1676C17.4131 87.1619 17.5964 86.2756 17.9628 85.5085C18.3336 84.7372 18.8492 84.1364 19.5097 83.706C20.1745 83.2713 20.9501 83.054 21.8364 83.054C22.3478 83.054 22.8528 83.1392 23.3513 83.3097C23.8499 83.4801 24.3038 83.7571 24.7128 84.1406C25.1219 84.5199 25.4479 85.0227 25.6908 85.6491C25.9337 86.2756 26.0552 87.0469 26.0552 87.9631V88.6023H18.487V87.2983H24.5211C24.5211 86.7443 24.4103 86.25 24.1887 85.8153C23.9714 85.3807 23.6603 85.0376 23.2555 84.7862C22.8549 84.5348 22.3819 84.4091 21.8364 84.4091C21.2356 84.4091 20.7157 84.5582 20.2768 84.8565C19.8421 85.1506 19.5076 85.5341 19.2732 86.0071C19.0388 86.4801 18.9217 86.9872 18.9217 87.5284V88.3977C18.9217 89.1392 19.0495 89.7678 19.3052 90.2834C19.5651 90.7947 19.9252 91.1847 20.3854 91.4531C20.8457 91.7173 21.3805 91.8494 21.9898 91.8494C22.3861 91.8494 22.7441 91.794 23.0637 91.6832C23.3876 91.5682 23.6667 91.3977 23.9011 91.1719C24.1354 90.9418 24.3165 90.6562 24.4444 90.3153L25.9018 90.7244C25.7484 91.2188 25.4905 91.6534 25.1283 92.0284C24.7661 92.3991 24.3187 92.6889 23.786 92.8977C23.2533 93.1023 22.6546 93.2045 21.9898 93.2045ZM29.2112 83.1818L31.5635 87.196L33.9158 83.1818H35.6544L32.484 88.0909L35.6544 93H33.9158L31.5635 89.1903L29.2112 93H27.4726L30.5919 88.0909L27.4726 83.1818H29.2112ZM42.0768 83.1818V84.4602H36.9888V83.1818H42.0768ZM38.4717 80.8295H39.9802V90.1875C39.9802 90.6136 40.042 90.9332 40.1656 91.1463C40.2935 91.3551 40.4554 91.4957 40.6514 91.5682C40.8517 91.6364 41.0626 91.6705 41.2842 91.6705C41.4504 91.6705 41.5868 91.6619 41.6933 91.6449C41.7998 91.6236 41.8851 91.6065 41.949 91.5938L42.2558 92.9489C42.1535 92.9872 42.0108 93.0256 41.8275 93.0639C41.6443 93.1065 41.4121 93.1278 41.1308 93.1278C40.7047 93.1278 40.2871 93.0362 39.878 92.853C39.4731 92.6697 39.1365 92.3906 38.868 92.0156C38.6038 91.6406 38.4717 91.1676 38.4717 90.5966V80.8295ZM45.4454 93.1023C45.1301 93.1023 44.8595 92.9893 44.6337 92.7635C44.4078 92.5376 44.2949 92.267 44.2949 91.9517C44.2949 91.6364 44.4078 91.3658 44.6337 91.1399C44.8595 90.9141 45.1301 90.8011 45.4454 90.8011C45.7608 90.8011 46.0314 90.9141 46.2572 91.1399C46.4831 91.3658 46.596 91.6364 46.596 91.9517C46.596 92.1605 46.5427 92.3523 46.4362 92.527C46.3339 92.7017 46.1954 92.8423 46.0207 92.9489C45.8503 93.0511 45.6585 93.1023 45.4454 93.1023ZM49.303 83.1818H50.8116V93.7159C50.8116 94.321 50.7072 94.8452 50.4984 95.2884C50.2938 95.7315 49.9827 96.0746 49.5651 96.3175C49.1518 96.5604 48.6297 96.6818 47.9991 96.6818C47.9479 96.6818 47.8968 96.6818 47.8457 96.6818C47.7945 96.6818 47.7434 96.6818 47.6922 96.6818V95.2756C47.7434 95.2756 47.7903 95.2756 47.8329 95.2756C47.8755 95.2756 47.9224 95.2756 47.9735 95.2756C48.4337 95.2756 48.7704 95.1392 48.9834 94.8665C49.1965 94.598 49.303 94.2145 49.303 93.7159V83.1818ZM50.0445 81.5455C49.7505 81.5455 49.4969 81.4453 49.2839 81.245C49.0751 81.0447 48.9707 80.804 48.9707 80.5227C48.9707 80.2415 49.0751 80.0007 49.2839 79.8004C49.4969 79.6001 49.7505 79.5 50.0445 79.5C50.3386 79.5 50.59 79.6001 50.7988 79.8004C51.0119 80.0007 51.1184 80.2415 51.1184 80.5227C51.1184 80.804 51.0119 81.0447 50.7988 81.245C50.59 81.4453 50.3386 81.5455 50.0445 81.5455ZM60.5291 85.3807L59.174 85.7642C59.0887 85.5384 58.963 85.3189 58.7968 85.1058C58.6349 84.8885 58.4133 84.7095 58.1321 84.5689C57.8508 84.4283 57.4907 84.358 57.0518 84.358C56.451 84.358 55.9502 84.4964 55.5497 84.7734C55.1534 85.0462 54.9552 85.3935 54.9552 85.8153C54.9552 86.1903 55.0916 86.4865 55.3643 86.7038C55.637 86.9212 56.0632 87.1023 56.6427 87.2472L58.1001 87.6051C58.9779 87.8182 59.6321 88.1442 60.0625 88.5831C60.4929 89.0178 60.7081 89.5781 60.7081 90.2642C60.7081 90.8267 60.5461 91.3295 60.2223 91.7727C59.9027 92.2159 59.4552 92.5653 58.8799 92.821C58.3046 93.0767 57.6356 93.2045 56.8728 93.2045C55.8714 93.2045 55.0426 92.9872 54.3863 92.5526C53.7301 92.1179 53.3146 91.483 53.1399 90.6477L54.5717 90.2898C54.7081 90.8182 54.9659 91.2145 55.3451 91.4787C55.7286 91.7429 56.2294 91.875 56.8473 91.875C57.5504 91.875 58.1086 91.7259 58.522 91.4276C58.9396 91.125 59.1484 90.7628 59.1484 90.3409C59.1484 90 59.0291 89.7145 58.7904 89.4844C58.5518 89.25 58.1853 89.0753 57.691 88.9602L56.0546 88.5767C55.1555 88.3636 54.495 88.0334 54.0731 87.5859C53.6555 87.1342 53.4467 86.5696 53.4467 85.892C53.4467 85.3381 53.6022 84.848 53.9133 84.4219C54.2286 83.9957 54.6569 83.6612 55.1981 83.4183C55.7436 83.1754 56.3615 83.054 57.0518 83.054C58.0234 83.054 58.7862 83.267 59.3402 83.6932C59.8984 84.1193 60.2947 84.6818 60.5291 85.3807Z" fill="#4B5563"/>
</g>
<defs>
<linearGradient id="paint0_linear_316_284" x1="39.1954" y1="41.4222" x2="51.8177" y2="57.0666" gradientUnits="userSpaceOnUse">
<stop stop-color="white"/>
<stop offset="1" stop-color="white" stop-opacity="0"/>
</linearGradient>
<linearGradient id="paint1_linear_316_284" x1="43.4622" y1="19.2" x2="43.3907" y2="38" gradientUnits="userSpaceOnUse">
<stop stop-color="white"/>
<stop offset="1" stop-color="white" stop-opacity="0"/>
</linearGradient>
<clipPath id="clip0_316_284">
<rect width="64" height="100" fill="white" transform="translate(0.439941)"/>
</clipPath>
<clipPath id="clip1_316_284">
<rect width="64" height="64" fill="white" transform="translate(0.439941)"/>
</clipPath>
</defs>
</svg>
