<svg width="66" height="100" viewBox="0 0 66 100" fill="none" xmlns="http://www.w3.org/2000/svg">
<g clip-path="url(#clip0_316_294)">
<g clip-path="url(#clip1_316_294)">
<path d="M32.9132 64C32.0552 64 31.2545 63.7668 30.5109 63.3586L22.9036 58.7517C21.7596 58.1102 22.3316 57.877 22.6748 57.7603C24.2191 57.2355 24.5051 57.1189 26.1067 56.1859C26.2782 56.0692 26.507 56.1275 26.6786 56.2442L32.5128 59.8014C32.7416 59.918 33.0276 59.918 33.1992 59.8014L56.0211 46.3307C56.2499 46.214 56.3643 45.9808 56.3643 45.6892V18.806C56.3643 18.5145 56.2499 18.2812 56.0211 18.1646L33.1992 4.75223C32.9704 4.63561 32.6844 4.63561 32.5128 4.75223L9.69085 18.1646C9.46207 18.2812 9.34766 18.5728 9.34766 18.806V45.6892C9.34766 45.9224 9.46207 46.214 9.69085 46.3307L15.9254 50.0045C19.3001 51.7539 21.4164 49.7129 21.4164 47.6719V21.1386C21.4164 20.7888 21.7024 20.4389 22.1028 20.4389H25.0199C25.3631 20.4389 25.7062 20.7305 25.7062 21.1386V47.6719C25.7062 52.2788 23.2467 54.9613 18.9569 54.9613C17.6414 54.9613 16.6118 54.9613 13.6947 53.5034L7.68893 50.0045C6.20179 49.1297 5.28662 47.4969 5.28662 45.7475V18.8644C5.28662 17.115 6.20179 15.4822 7.68893 14.6074L30.5109 1.13672C31.9409 0.320313 33.8856 0.320313 35.3155 1.13672L58.1374 14.6074C59.6246 15.4822 60.5398 17.115 60.5398 18.8644V45.7475C60.5398 47.4969 59.6246 49.1297 58.1374 50.0045L35.3155 63.4752C34.6291 63.7668 33.7712 64 32.9132 64Z" fill="#5FA04E"/>
<path d="M40.0058 45.5142C29.9961 45.5142 27.937 40.849 27.937 36.8836C27.937 36.5337 28.223 36.1839 28.6233 36.1839H31.5977C31.9408 36.1839 32.2269 36.4171 32.2269 36.767C32.6844 39.8576 34 41.3738 40.0629 41.3738C44.8675 41.3738 46.9267 40.2658 46.9267 37.6417C46.9267 36.1255 46.3547 35.0175 38.8617 34.2594C32.6272 33.6179 28.7378 32.2184 28.7378 27.145C28.7378 22.4215 32.6272 19.6224 39.1478 19.6224C46.4691 19.6224 50.0725 22.1883 50.5301 27.7865C50.5301 27.9615 50.4729 28.1364 50.3586 28.3114C50.2442 28.4279 50.0725 28.5446 49.9009 28.5446H46.8695C46.5835 28.5446 46.2975 28.3114 46.2403 28.0197C45.5539 24.8124 43.7808 23.7627 39.0906 23.7627C33.8283 23.7627 33.1992 25.6289 33.1992 27.0284C33.1992 28.7195 33.9428 29.2444 41.0353 30.1774C48.0706 31.1104 51.3881 32.4517 51.3881 37.4668C51.3881 42.5984 47.2127 45.5142 40.0058 45.5142Z" fill="#5FA04E"/>
</g>
<path d="M12.2796 79.9091V93H10.7455L3.61202 82.7216H3.48418V93H1.89895V79.9091H3.43304L10.5921 90.2131H10.72V79.9091H12.2796ZM19.2358 93.2045C18.3494 93.2045 17.5717 92.9936 16.9027 92.5717C16.2379 92.1499 15.718 91.5597 15.343 90.8011C14.9723 90.0426 14.7869 89.1562 14.7869 88.142C14.7869 87.1193 14.9723 86.2266 15.343 85.4638C15.718 84.701 16.2379 84.1087 16.9027 83.6868C17.5717 83.2649 18.3494 83.054 19.2358 83.054C20.1221 83.054 20.8977 83.2649 21.5625 83.6868C22.2315 84.1087 22.7514 84.701 23.1221 85.4638C23.4971 86.2266 23.6846 87.1193 23.6846 88.142C23.6846 89.1562 23.4971 90.0426 23.1221 90.8011C22.7514 91.5597 22.2315 92.1499 21.5625 92.5717C20.8977 92.9936 20.1221 93.2045 19.2358 93.2045ZM19.2358 91.8494C19.9091 91.8494 20.463 91.6768 20.8977 91.3317C21.3324 90.9865 21.6541 90.5327 21.8629 89.9702C22.0717 89.4077 22.1761 88.7983 22.1761 88.142C22.1761 87.4858 22.0717 86.8743 21.8629 86.3075C21.6541 85.7408 21.3324 85.2827 20.8977 84.9332C20.463 84.5838 19.9091 84.4091 19.2358 84.4091C18.5625 84.4091 18.0085 84.5838 17.5738 84.9332C17.1392 85.2827 16.8174 85.7408 16.6086 86.3075C16.3998 86.8743 16.2954 87.4858 16.2954 88.142C16.2954 88.7983 16.3998 89.4077 16.6086 89.9702C16.8174 90.5327 17.1392 90.9865 17.5738 91.3317C18.0085 91.6768 18.5625 91.8494 19.2358 91.8494ZM29.6948 93.2045C28.8766 93.2045 28.1543 92.9979 27.5279 92.5845C26.9014 92.1669 26.4114 91.5788 26.0577 90.8203C25.704 90.0575 25.5271 89.1562 25.5271 88.1165C25.5271 87.0852 25.704 86.1903 26.0577 85.4318C26.4114 84.6733 26.9036 84.0874 27.5342 83.674C28.1649 83.2607 28.8936 83.054 29.7203 83.054C30.3595 83.054 30.8645 83.1605 31.2352 83.3736C31.6102 83.5824 31.8958 83.821 32.0918 84.0895C32.2921 84.3537 32.4476 84.571 32.5584 84.7415H32.6862V79.9091H34.1948V93H32.7374V91.4915H32.5584C32.4476 91.6705 32.2899 91.8963 32.0854 92.169C31.8808 92.4375 31.5889 92.6783 31.2097 92.8913C30.8304 93.1001 30.3254 93.2045 29.6948 93.2045ZM29.8993 91.8494C30.5044 91.8494 31.0158 91.6918 31.4334 91.3764C31.851 91.0568 32.1685 90.6158 32.3858 90.0533C32.6031 89.4865 32.7118 88.8324 32.7118 88.0909C32.7118 87.358 32.6053 86.7166 32.3922 86.1669C32.1791 85.6129 31.8638 85.1825 31.4462 84.8757C31.0286 84.5646 30.5129 84.4091 29.8993 84.4091C29.2601 84.4091 28.7274 84.5732 28.3013 84.9013C27.8794 85.2251 27.5619 85.6662 27.3489 86.2244C27.1401 86.7784 27.0357 87.4006 27.0357 88.0909C27.0357 88.7898 27.1422 89.4247 27.3553 89.9957C27.5726 90.5625 27.8922 91.0142 28.3141 91.3509C28.7402 91.6832 29.2686 91.8494 29.8993 91.8494ZM41.2835 93.2045C40.3375 93.2045 39.5215 92.9957 38.8354 92.5781C38.1536 92.1562 37.6273 91.5682 37.2565 90.8139C36.8901 90.0554 36.7068 89.1733 36.7068 88.1676C36.7068 87.1619 36.8901 86.2756 37.2565 85.5085C37.6273 84.7372 38.1429 84.1364 38.8034 83.706C39.4682 83.2713 40.2438 83.054 41.1301 83.054C41.6415 83.054 42.1465 83.1392 42.645 83.3097C43.1436 83.4801 43.5975 83.7571 44.0065 84.1406C44.4156 84.5199 44.7416 85.0227 44.9845 85.6491C45.2274 86.2756 45.3489 87.0469 45.3489 87.9631V88.6023H37.7807V87.2983H43.8148C43.8148 86.7443 43.704 86.25 43.4824 85.8153C43.2651 85.3807 42.954 85.0376 42.5492 84.7862C42.1486 84.5348 41.6756 84.4091 41.1301 84.4091C40.5293 84.4091 40.0094 84.5582 39.5705 84.8565C39.1358 85.1506 38.8013 85.5341 38.5669 86.0071C38.3325 86.4801 38.2154 86.9872 38.2154 87.5284V88.3977C38.2154 89.1392 38.3432 89.7678 38.5989 90.2834C38.8588 90.7947 39.2189 91.1847 39.6791 91.4531C40.1394 91.7173 40.6742 91.8494 41.2835 91.8494C41.6798 91.8494 42.0378 91.794 42.3574 91.6832C42.6813 91.5682 42.9604 91.3977 43.1948 91.1719C43.4291 90.9418 43.6102 90.6562 43.7381 90.3153L45.1955 90.7244C45.0421 91.2188 44.7842 91.6534 44.422 92.0284C44.0598 92.3991 43.6124 92.6889 43.0797 92.8977C42.547 93.1023 41.9483 93.2045 41.2835 93.2045ZM48.7431 93.1023C48.4277 93.1023 48.1571 92.9893 47.9313 92.7635C47.7054 92.5376 47.5925 92.267 47.5925 91.9517C47.5925 91.6364 47.7054 91.3658 47.9313 91.1399C48.1571 90.9141 48.4277 90.8011 48.7431 90.8011C49.0584 90.8011 49.329 90.9141 49.5548 91.1399C49.7807 91.3658 49.8936 91.6364 49.8936 91.9517C49.8936 92.1605 49.8404 92.3523 49.7338 92.527C49.6315 92.7017 49.4931 92.8423 49.3183 92.9489C49.1479 93.0511 48.9561 93.1023 48.7431 93.1023ZM52.6007 83.1818H54.1092V93.7159C54.1092 94.321 54.0048 94.8452 53.796 95.2884C53.5914 95.7315 53.2803 96.0746 52.8627 96.3175C52.4494 96.5604 51.9274 96.6818 51.2967 96.6818C51.2455 96.6818 51.1944 96.6818 51.1433 96.6818C51.0921 96.6818 51.041 96.6818 50.9899 96.6818V95.2756C51.041 95.2756 51.0879 95.2756 51.1305 95.2756C51.1731 95.2756 51.22 95.2756 51.2711 95.2756C51.7313 95.2756 52.068 95.1392 52.2811 94.8665C52.4941 94.598 52.6007 94.2145 52.6007 93.7159V83.1818ZM53.3421 81.5455C53.0481 81.5455 52.7945 81.4453 52.5815 81.245C52.3727 81.0447 52.2683 80.804 52.2683 80.5227C52.2683 80.2415 52.3727 80.0007 52.5815 79.8004C52.7945 79.6001 53.0481 79.5 53.3421 79.5C53.6362 79.5 53.8876 79.6001 54.0964 79.8004C54.3095 80.0007 54.416 80.2415 54.416 80.5227C54.416 80.804 54.3095 81.0447 54.0964 81.245C53.8876 81.4453 53.6362 81.5455 53.3421 81.5455ZM63.8267 85.3807L62.4716 85.7642C62.3863 85.5384 62.2606 85.3189 62.0944 85.1058C61.9325 84.8885 61.7109 84.7095 61.4297 84.5689C61.1484 84.4283 60.7883 84.358 60.3494 84.358C59.7486 84.358 59.2478 84.4964 58.8473 84.7734C58.451 85.0462 58.2528 85.3935 58.2528 85.8153C58.2528 86.1903 58.3892 86.4865 58.6619 86.7038C58.9346 86.9212 59.3608 87.1023 59.9403 87.2472L61.3977 87.6051C62.2755 87.8182 62.9297 88.1442 63.3601 88.5831C63.7905 89.0178 64.0057 89.5781 64.0057 90.2642C64.0057 90.8267 63.8437 91.3295 63.5199 91.7727C63.2003 92.2159 62.7528 92.5653 62.1775 92.821C61.6023 93.0767 60.9332 93.2045 60.1704 93.2045C59.169 93.2045 58.3402 92.9872 57.6839 92.5526C57.0277 92.1179 56.6122 91.483 56.4375 90.6477L57.8693 90.2898C58.0057 90.8182 58.2635 91.2145 58.6427 91.4787C59.0263 91.7429 59.527 91.875 60.1449 91.875C60.848 91.875 61.4062 91.7259 61.8196 91.4276C62.2372 91.125 62.446 90.7628 62.446 90.3409C62.446 90 62.3267 89.7145 62.088 89.4844C61.8494 89.25 61.4829 89.0753 60.9886 88.9602L59.3523 88.5767C58.4531 88.3636 57.7926 88.0334 57.3707 87.5859C56.9531 87.1342 56.7443 86.5696 56.7443 85.892C56.7443 85.3381 56.8998 84.848 57.2109 84.4219C57.5263 83.9957 57.9545 83.6612 58.4957 83.4183C59.0412 83.1754 59.6591 83.054 60.3494 83.054C61.321 83.054 62.0838 83.267 62.6378 83.6932C63.196 84.1193 63.5923 84.6818 63.8267 85.3807Z" fill="#4B5563"/>
</g>
<defs>
<clipPath id="clip0_316_294">
<rect width="65" height="100" fill="white" transform="translate(0.313721)"/>
</clipPath>
<clipPath id="clip1_316_294">
<rect width="56.32" height="64" fill="white" transform="translate(4.65381)"/>
</clipPath>
</defs>
</svg>
