<svg width="71" height="100" viewBox="0 0 71 100" fill="none" xmlns="http://www.w3.org/2000/svg">
<g clip-path="url(#clip0_316_276)">
<g clip-path="url(#clip1_316_276)">
<path d="M35.6569 38.7725C39.3293 38.7725 42.3063 35.7404 42.3063 32C42.3063 28.2597 39.3293 25.2275 35.6569 25.2275C31.9846 25.2275 29.0076 28.2597 29.0076 32C29.0076 35.7404 31.9846 38.7725 35.6569 38.7725Z" fill="#087EA4"/>
<path d="M35.6569 47.238C54.0186 47.238 68.9037 40.4157 68.9037 31.9999C68.9037 23.5842 54.0186 16.7618 35.6569 16.7618C17.2952 16.7618 2.41016 23.5842 2.41016 31.9999C2.41016 40.4157 17.2952 47.238 35.6569 47.238Z" stroke="#087EA4" stroke-width="3"/>
<path d="M22.7003 39.619C31.8812 55.8152 45.1246 65.5336 52.2803 61.3257C59.4361 57.1178 57.7944 40.5771 48.6136 24.3809C39.4328 8.18475 26.1893 -1.53366 19.0336 2.67422C11.8778 6.88211 13.5195 23.4228 22.7003 39.619Z" stroke="#087EA4" stroke-width="3"/>
<path d="M22.7002 24.3808C13.5193 40.577 11.8777 57.1177 19.0334 61.3256C26.1892 65.5335 39.4326 55.8151 48.6134 39.6189C57.7943 23.4228 59.4359 6.88205 52.2802 2.67416C45.1244 -1.53372 31.881 8.18469 22.7002 24.3808Z" stroke="#087EA4" stroke-width="3"/>
</g>
<path d="M12.7422 93V79.9091H17.1655C18.1882 79.9091 19.0277 80.0838 19.684 80.4332C20.3402 80.7784 20.826 81.2536 21.1414 81.8587C21.4567 82.4638 21.6144 83.152 21.6144 83.9233C21.6144 84.6946 21.4567 85.3786 21.1414 85.9751C20.826 86.5717 20.3424 87.0405 19.6904 87.3814C19.0384 87.718 18.2053 87.8864 17.1911 87.8864H13.6115V86.4545H17.1399C17.8388 86.4545 18.4013 86.3523 18.8274 86.1477C19.2578 85.9432 19.5689 85.6534 19.7607 85.2784C19.9567 84.8991 20.0547 84.4474 20.0547 83.9233C20.0547 83.3991 19.9567 82.9411 19.7607 82.549C19.5647 82.157 19.2514 81.8544 18.821 81.6413C18.3906 81.424 17.8218 81.3153 17.1144 81.3153H14.3274V93H12.7422ZM18.9041 87.1193L22.1257 93H20.2848L17.1144 87.1193H18.9041ZM28.0623 93.2045C27.1163 93.2045 26.3003 92.9957 25.6142 92.5781C24.9324 92.1562 24.4061 91.5682 24.0354 90.8139C23.6689 90.0554 23.4856 89.1733 23.4856 88.1676C23.4856 87.1619 23.6689 86.2756 24.0354 85.5085C24.4061 84.7372 24.9217 84.1364 25.5822 83.706C26.247 83.2713 27.0226 83.054 27.9089 83.054C28.4203 83.054 28.9253 83.1392 29.4239 83.3097C29.9224 83.4801 30.3763 83.7571 30.7854 84.1406C31.1944 84.5199 31.5204 85.0227 31.7633 85.6491C32.0062 86.2756 32.1277 87.0469 32.1277 87.9631V88.6023H24.5595V87.2983H30.5936C30.5936 86.7443 30.4828 86.25 30.2612 85.8153C30.0439 85.3807 29.7328 85.0376 29.328 84.7862C28.9274 84.5348 28.4544 84.4091 27.9089 84.4091C27.3081 84.4091 26.7882 84.5582 26.3493 84.8565C25.9146 85.1506 25.5801 85.5341 25.3457 86.0071C25.1114 86.4801 24.9942 86.9872 24.9942 87.5284V88.3977C24.9942 89.1392 25.122 89.7678 25.3777 90.2834C25.6376 90.7947 25.9977 91.1847 26.4579 91.4531C26.9182 91.7173 27.453 91.8494 28.0623 91.8494C28.4587 91.8494 28.8166 91.794 29.1362 91.6832C29.4601 91.5682 29.7392 91.3977 29.9736 91.1719C30.2079 90.9418 30.389 90.6562 30.5169 90.3153L31.9743 90.7244C31.8209 91.2188 31.5631 91.6534 31.2008 92.0284C30.8386 92.3991 30.3912 92.6889 29.8585 92.8977C29.3258 93.1023 28.7271 93.2045 28.0623 93.2045ZM37.3116 93.2301C36.6895 93.2301 36.1248 93.1129 35.6177 92.8786C35.1106 92.6399 34.7079 92.2969 34.4096 91.8494C34.1114 91.3977 33.9622 90.8523 33.9622 90.2131C33.9622 89.6506 34.073 89.1946 34.2946 88.8452C34.5162 88.4915 34.8123 88.2145 35.1831 88.0142C35.5538 87.8139 35.9629 87.6648 36.4104 87.5668C36.8621 87.4645 37.3159 87.3835 37.7719 87.3239C38.3685 87.2472 38.8521 87.1896 39.2229 87.1513C39.5979 87.1087 39.8706 87.0384 40.041 86.9403C40.2158 86.8423 40.3031 86.6719 40.3031 86.429V86.3778C40.3031 85.7472 40.1305 85.2571 39.7854 84.9077C39.4444 84.5582 38.9267 84.3835 38.2321 84.3835C37.5119 84.3835 36.9473 84.5412 36.5382 84.8565C36.1291 85.1719 35.8415 85.5085 35.6753 85.8665L34.2435 85.3551C34.4991 84.7585 34.84 84.294 35.2662 83.9616C35.6966 83.625 36.1653 83.3906 36.6724 83.2585C37.1838 83.1222 37.6866 83.054 38.181 83.054C38.4963 83.054 38.8585 83.0923 39.2676 83.169C39.681 83.2415 40.0794 83.3928 40.4629 83.6229C40.8507 83.853 41.1724 84.2003 41.4281 84.6648C41.6838 85.1293 41.8116 85.7514 41.8116 86.5312V93H40.3031V91.6705H40.2264C40.1241 91.8835 39.9537 92.1115 39.715 92.3544C39.4764 92.5973 39.1589 92.804 38.7626 92.9744C38.3663 93.1449 37.8827 93.2301 37.3116 93.2301ZM37.5417 91.875C38.1383 91.875 38.6412 91.7578 39.0503 91.5234C39.4636 91.2891 39.7747 90.9865 39.9835 90.6158C40.1966 90.245 40.3031 89.8551 40.3031 89.446V88.0653C40.2392 88.142 40.0986 88.2124 39.8812 88.2763C39.6682 88.3359 39.421 88.3892 39.1398 88.4361C38.8628 88.4787 38.5922 88.517 38.328 88.5511C38.068 88.581 37.8571 88.6065 37.6952 88.6278C37.3031 88.679 36.9366 88.7621 36.5957 88.8771C36.2591 88.9879 35.9864 89.1562 35.7775 89.3821C35.573 89.6037 35.4707 89.9062 35.4707 90.2898C35.4707 90.8139 35.6646 91.2102 36.0524 91.4787C36.4444 91.7429 36.9409 91.875 37.5417 91.875ZM48.5536 93.2045C47.6332 93.2045 46.8406 92.9872 46.1758 92.5526C45.511 92.1179 44.9997 91.5192 44.6417 90.7564C44.2838 89.9936 44.1048 89.1222 44.1048 88.142C44.1048 87.1449 44.288 86.2649 44.6545 85.5021C45.0252 84.7351 45.5409 84.1364 46.2014 83.706C46.8661 83.2713 47.6417 83.054 48.5281 83.054C49.2184 83.054 49.8406 83.1818 50.3946 83.4375C50.9485 83.6932 51.4024 84.0511 51.7561 84.5114C52.1098 84.9716 52.3292 85.5085 52.4144 86.1222H50.9059C50.7909 85.6747 50.5352 85.2784 50.1389 84.9332C49.7468 84.5838 49.2184 84.4091 48.5536 84.4091C47.9656 84.4091 47.45 84.5625 47.0068 84.8693C46.5678 85.1719 46.2248 85.6001 45.9776 86.1541C45.7348 86.7038 45.6133 87.3494 45.6133 88.0909C45.6133 88.8494 45.7326 89.5099 45.9713 90.0724C46.2142 90.6349 46.5551 91.0717 46.994 91.3828C47.4372 91.6939 47.9571 91.8494 48.5536 91.8494C48.9457 91.8494 49.3015 91.7812 49.6211 91.6449C49.9407 91.5085 50.2113 91.3125 50.4329 91.0568C50.6545 90.8011 50.8122 90.4943 50.9059 90.1364H52.4144C52.3292 90.7159 52.1183 91.2379 51.7816 91.7024C51.4492 92.1626 51.0082 92.5291 50.4585 92.8018C49.913 93.0703 49.2781 93.2045 48.5536 93.2045ZM58.8896 83.1818V84.4602H53.8015V83.1818H58.8896ZM55.2845 80.8295H56.793V90.1875C56.793 90.6136 56.8548 90.9332 56.9784 91.1463C57.1062 91.3551 57.2681 91.4957 57.4642 91.5682C57.6644 91.6364 57.8754 91.6705 58.097 91.6705C58.2632 91.6705 58.3995 91.6619 58.5061 91.6449C58.6126 91.6236 58.6978 91.6065 58.7617 91.5938L59.0686 92.9489C58.9663 92.9872 58.8235 93.0256 58.6403 93.0639C58.4571 93.1065 58.2248 93.1278 57.9436 93.1278C57.5174 93.1278 57.0998 93.0362 56.6907 92.853C56.2859 92.6697 55.9492 92.3906 55.6808 92.0156C55.4166 91.6406 55.2845 91.1676 55.2845 90.5966V80.8295Z" fill="#4B5563"/>
</g>
<defs>
<clipPath id="clip0_316_276">
<rect width="69.8182" height="100" fill="white" transform="translate(0.747803)"/>
</clipPath>
<clipPath id="clip1_316_276">
<rect width="69.8182" height="64" fill="white" transform="translate(0.747803)"/>
</clipPath>
</defs>
</svg>
