<svg width="89" height="121" viewBox="0 0 89 121" fill="none" xmlns="http://www.w3.org/2000/svg">
<path d="M65.8054 45.108C63.7548 45.1187 61.9788 45.6107 60.4908 46.3454C59.9468 45.2587 59.3948 44.3027 59.3028 43.592C59.1948 42.7627 59.0694 42.2667 59.2001 41.2787C59.3308 40.2907 59.9028 38.8907 59.8948 38.7854C59.8868 38.68 59.7668 38.1774 58.5841 38.168C57.4014 38.16 56.3894 38.396 56.2708 38.708C56.1521 39.02 55.9241 39.7227 55.7828 40.456C55.5761 41.528 53.4214 45.3534 52.1988 47.3534C51.7988 46.572 51.4588 45.884 51.3881 45.34C51.2801 44.5107 51.1548 44.0147 51.2854 43.0267C51.4161 42.0387 51.9881 40.6387 51.9801 40.5334C51.9721 40.428 51.8521 39.9254 50.6694 39.916C49.4868 39.908 48.4748 40.144 48.3561 40.456C48.2374 40.768 48.1094 41.4974 47.8681 42.204C47.6254 42.9094 44.7628 49.2894 44.0121 50.944C43.6294 51.7867 43.2974 52.464 43.0628 52.9254L43.0614 52.9227C43.0614 52.9227 43.0468 52.9534 43.0228 53.0054C42.8214 53.3987 42.7028 53.616 42.7028 53.616C42.7028 53.616 42.7041 53.6187 42.7068 53.624C42.5468 53.9134 42.3761 54.1814 42.2921 54.1814C42.2334 54.1814 42.1148 53.412 42.3174 52.356C42.7441 50.1427 43.7668 46.692 43.7574 46.572C43.7521 46.5107 43.9481 45.9094 43.0894 45.5947C42.2548 45.2894 41.9574 45.7987 41.8814 45.8C41.8081 45.8014 41.7534 45.98 41.7534 45.98C41.7534 45.98 42.6828 42.0987 39.9801 42.0987C38.2894 42.0987 35.9481 43.948 34.7948 45.624C34.0668 46.0214 32.5081 46.872 30.8561 47.78C30.2214 48.1294 29.5734 48.4854 28.9588 48.824C28.9174 48.7774 28.8748 48.732 28.8321 48.6854C25.5534 45.188 19.4948 42.7147 19.7508 38.012C19.8441 36.3027 20.4388 31.8014 31.3948 26.3427C40.3694 21.8707 47.5548 23.1014 48.7961 25.828C50.5694 29.7254 44.9561 36.9667 35.6361 38.012C32.0854 38.4107 30.2148 37.0334 29.7494 36.5214C29.2601 35.9814 29.1868 35.9574 29.0041 36.0587C28.7068 36.224 28.8948 36.7 29.0041 36.984C29.2828 37.708 30.4241 38.992 32.3708 39.632C34.0841 40.1947 38.2534 40.5027 43.2948 38.552C48.9428 36.368 53.3521 30.2907 52.0561 25.212C50.7388 20.0467 42.1734 18.348 34.0668 21.228C29.2361 22.9427 24.0134 25.6334 20.2574 29.1454C15.7921 33.3214 15.0801 36.9574 15.3734 38.476C16.4161 43.8734 23.8548 47.388 26.8334 49.992C26.6868 50.0734 26.5481 50.1494 26.4228 50.2187C24.9294 50.9574 19.2588 53.9254 17.8401 57.06C16.2308 60.616 18.0961 63.168 19.3308 63.512C23.1561 64.576 27.0814 62.6614 29.1921 59.5147C31.3014 56.3694 31.0441 52.272 30.0761 50.4027C30.0641 50.38 30.0508 50.3574 30.0388 50.3334C30.4241 50.1054 30.8174 49.8734 31.2068 49.644C31.9668 49.1974 32.7134 48.7814 33.3601 48.4294C32.9974 49.4214 32.7321 50.612 32.5948 52.3307C32.4321 54.3494 33.2601 56.9587 34.3428 57.9854C34.8201 58.4374 35.3934 58.448 35.7561 58.448C37.0161 58.448 37.5908 57.4 38.2241 56.16C39.0001 54.64 39.6894 52.8694 39.6894 52.8694C39.6894 52.8694 38.8254 57.6507 41.1801 57.6507C42.0388 57.6507 42.9014 56.5374 43.2868 55.9707C43.2881 55.9774 43.2881 55.98 43.2881 55.98C43.2881 55.98 43.3108 55.9427 43.3548 55.8694C43.4441 55.7334 43.4948 55.6467 43.4948 55.6467C43.4948 55.6467 43.4961 55.6374 43.4988 55.6214C43.8441 55.0227 44.6094 53.6574 45.7561 51.4054C47.2388 48.496 48.6601 44.8507 48.6601 44.8507C48.6601 44.8507 48.7921 45.7414 49.2254 47.216C49.4801 48.0827 50.0214 49.0414 50.4494 49.9614C50.1054 50.4387 49.8948 50.712 49.8948 50.712C49.8948 50.712 49.8961 50.7174 49.9001 50.7267C49.6254 51.092 49.3174 51.4854 48.9948 51.8694C47.8241 53.2627 46.4308 54.8547 46.2441 55.3134C46.0241 55.8547 46.0761 56.252 46.5014 56.5734C46.8121 56.8067 47.3641 56.844 47.9414 56.8054C48.9934 56.7347 49.7321 56.4734 50.0974 56.3147C50.6668 56.1134 51.3294 55.7974 51.9508 55.34C53.0988 54.496 53.7908 53.2894 53.7241 51.6894C53.6868 50.808 53.4068 49.9347 53.0508 49.1107C53.1548 48.9614 53.2588 48.8094 53.3641 48.6574C55.1734 46.012 56.5774 43.1054 56.5774 43.1054C56.5774 43.1054 56.7094 43.996 57.1428 45.4707C57.3614 46.216 57.7948 47.0307 58.1841 47.828C56.4828 49.2107 55.4281 50.8174 55.0614 51.8707C54.3841 53.82 54.9148 54.7027 55.9094 54.904C56.3601 54.9947 56.9974 54.788 57.4761 54.5854C58.0721 54.388 58.7881 54.0587 59.4574 53.5667C60.6054 52.7227 61.7094 51.5414 61.6428 49.9427C61.6121 49.2147 61.4148 48.492 61.1468 47.7987C62.5894 47.1974 64.4561 46.864 66.8348 47.1414C71.9374 47.7374 72.9374 50.9227 72.7468 52.256C72.5548 53.5894 71.4854 54.3227 71.1268 54.544C70.7694 54.7654 70.6601 54.8427 70.6894 55.0067C70.7334 55.2454 70.8988 55.2374 71.2041 55.1854C71.6241 55.1147 73.8828 54.1014 73.9801 51.64C74.1014 48.512 71.1081 45.08 65.8054 45.108ZM26.4761 58.3667C24.7854 60.2107 22.4254 60.9067 21.4121 60.32C20.3188 59.6867 20.7521 56.972 22.8254 55.0147C24.0894 53.8227 25.7214 52.724 26.8041 52.048C27.0508 51.9 27.4121 51.6827 27.8521 51.4187C27.9254 51.3774 27.9668 51.3547 27.9668 51.3547L27.9654 51.352C28.0508 51.3014 28.1374 51.2494 28.2268 51.1947C28.9828 53.98 28.2508 56.432 26.4761 58.3667ZM38.7894 49.9974C38.2014 51.432 36.9694 55.104 36.2188 54.9067C35.5748 54.7374 35.1828 51.9467 36.0908 49.2C36.5468 47.8174 37.5228 46.1654 38.0961 45.524C39.0188 44.492 40.0348 44.1547 40.2814 44.5734C40.5948 45.1067 39.1588 49.0974 38.7894 49.9974ZM48.9614 54.8507C48.7121 54.9814 48.4828 55.0627 48.3774 55C48.2988 54.9534 48.4801 54.7814 48.4801 54.7814C48.4801 54.7814 49.7521 53.412 50.2534 52.7894C50.5454 52.4267 50.8828 51.996 51.2508 51.516C51.2534 51.564 51.2548 51.612 51.2548 51.6587C51.2521 53.2987 49.6681 54.4054 48.9614 54.8507ZM56.7974 53.064C56.6108 52.932 56.6428 52.504 57.2548 51.1694C57.4948 50.6454 58.0441 49.764 58.9961 48.9214C59.1068 49.268 59.1734 49.6 59.1721 49.9094C59.1601 51.9734 57.6881 52.744 56.7974 53.064Z" fill="#F06292"/>
<path d="M9.39373 93.6818C9.31703 93.0341 9.00595 92.5312 8.46049 92.1733C7.91504 91.8153 7.24601 91.6364 6.45339 91.6364C5.87385 91.6364 5.36674 91.7301 4.93208 91.9176C4.50169 92.1051 4.16504 92.3629 3.92214 92.6911C3.68351 93.0192 3.56419 93.392 3.56419 93.8097C3.56419 94.1591 3.64728 94.4595 3.81348 94.7109C3.98393 94.9581 4.20126 95.1648 4.46547 95.331C4.72967 95.4929 5.00666 95.6271 5.29643 95.7337C5.5862 95.8359 5.85254 95.919 6.09544 95.983L7.42498 96.3409C7.76589 96.4304 8.14515 96.554 8.56277 96.7116C8.98464 96.8693 9.38734 97.0845 9.77086 97.3572C10.1586 97.6257 10.4782 97.9709 10.7297 98.3928C10.9811 98.8146 11.1068 99.3324 11.1068 99.946C11.1068 100.653 10.9214 101.293 10.5507 101.864C10.1842 102.435 9.64728 102.888 8.9399 103.225C8.23677 103.562 7.38237 103.73 6.37669 103.73C5.43919 103.73 4.6274 103.579 3.94132 103.276C3.2595 102.974 2.72257 102.552 2.33052 102.011C1.94274 101.469 1.72328 100.841 1.67214 100.125H3.30851C3.35112 100.619 3.51731 101.028 3.80708 101.352C4.10112 101.672 4.47186 101.911 4.9193 102.068C5.37101 102.222 5.8568 102.298 6.37669 102.298C6.9818 102.298 7.52512 102.2 8.00666 102.004C8.48819 101.804 8.86958 101.527 9.15083 101.173C9.43208 100.815 9.57271 100.398 9.57271 99.9205C9.57271 99.4858 9.45126 99.1321 9.20836 98.8594C8.96547 98.5866 8.64586 98.3651 8.24956 98.1946C7.85325 98.0241 7.42498 97.875 6.96476 97.7472L5.35396 97.2869C4.33123 96.9929 3.52157 96.5732 2.92498 96.0277C2.32839 95.4822 2.0301 94.7685 2.0301 93.8864C2.0301 93.1534 2.22825 92.5142 2.62456 91.9688C3.02512 91.419 3.56206 90.9929 4.23535 90.6903C4.91291 90.3835 5.6693 90.2301 6.50453 90.2301C7.34828 90.2301 8.09828 90.3814 8.75453 90.6839C9.41078 90.9822 9.93066 91.3913 10.3142 91.9112C10.702 92.4311 10.9065 93.0213 10.9278 93.6818H9.39373ZM16.3978 103.73C15.7757 103.73 15.211 103.613 14.7039 103.379C14.1968 103.14 13.7941 102.797 13.4958 102.349C13.1975 101.898 13.0484 101.352 13.0484 100.713C13.0484 100.151 13.1592 99.6946 13.3808 99.3452C13.6024 98.9915 13.8985 98.7145 14.2693 98.5142C14.64 98.3139 15.0491 98.1648 15.4965 98.0668C15.9482 97.9645 16.4021 97.8835 16.858 97.8239C17.4546 97.7472 17.9383 97.6896 18.309 97.6513C18.684 97.6087 18.9568 97.5384 19.1272 97.4403C19.3019 97.3423 19.3893 97.1719 19.3893 96.929V96.8778C19.3893 96.2472 19.2167 95.7571 18.8715 95.4077C18.5306 95.0582 18.0129 94.8835 17.3183 94.8835C16.5981 94.8835 16.0335 95.0412 15.6244 95.3565C15.2153 95.6719 14.9276 96.0085 14.7615 96.3665L13.3296 95.8551C13.5853 95.2585 13.9262 94.794 14.3524 94.4616C14.7828 94.125 15.2515 93.8906 15.7586 93.7585C16.27 93.6222 16.7728 93.554 17.2671 93.554C17.5825 93.554 17.9447 93.5923 18.3538 93.669C18.7671 93.7415 19.1656 93.8928 19.5491 94.1229C19.9369 94.353 20.2586 94.7003 20.5143 95.1648C20.77 95.6293 20.8978 96.2514 20.8978 97.0312V103.5H19.3893V102.17H19.3126C19.2103 102.384 19.0399 102.612 18.8012 102.854C18.5626 103.097 18.2451 103.304 17.8488 103.474C17.4525 103.645 16.9688 103.73 16.3978 103.73ZM16.6279 102.375C17.2245 102.375 17.7274 102.258 18.1365 102.023C18.5498 101.789 18.8609 101.487 19.0697 101.116C19.2828 100.745 19.3893 100.355 19.3893 99.946V98.5653C19.3254 98.642 19.1847 98.7124 18.9674 98.7763C18.7544 98.8359 18.5072 98.8892 18.2259 98.9361C17.949 98.9787 17.6784 99.017 17.4142 99.0511C17.1542 99.081 16.9433 99.1065 16.7813 99.1278C16.3893 99.179 16.0228 99.2621 15.6819 99.3771C15.3453 99.4879 15.0725 99.6562 14.8637 99.8821C14.6592 100.104 14.5569 100.406 14.5569 100.79C14.5569 101.314 14.7508 101.71 15.1386 101.979C15.5306 102.243 16.0271 102.375 16.6279 102.375ZM30.6057 95.8807L29.2506 96.2642C29.1654 96.0384 29.0397 95.8189 28.8735 95.6058C28.7116 95.3885 28.49 95.2095 28.2087 95.0689C27.9275 94.9283 27.5674 94.858 27.1285 94.858C26.5276 94.858 26.0269 94.9964 25.6263 95.2734C25.23 95.5462 25.0319 95.8935 25.0319 96.3153C25.0319 96.6903 25.1682 96.9865 25.441 97.2038C25.7137 97.4212 26.1398 97.6023 26.7194 97.7472L28.1768 98.1051C29.0546 98.3182 29.7087 98.6442 30.1391 99.0831C30.5695 99.5178 30.7847 100.078 30.7847 100.764C30.7847 101.327 30.6228 101.83 30.2989 102.273C29.9793 102.716 29.5319 103.065 28.9566 103.321C28.3813 103.577 27.7123 103.705 26.9495 103.705C25.9481 103.705 25.1192 103.487 24.463 103.053C23.8067 102.618 23.3912 101.983 23.2165 101.148L24.6483 100.79C24.7847 101.318 25.0425 101.714 25.4218 101.979C25.8053 102.243 26.306 102.375 26.9239 102.375C27.627 102.375 28.1853 102.226 28.5986 101.928C29.0162 101.625 29.2251 101.263 29.2251 100.841C29.2251 100.5 29.1057 100.214 28.8671 99.9844C28.6285 99.75 28.262 99.5753 27.7677 99.4602L26.1313 99.0767C25.2322 98.8636 24.5716 98.5334 24.1498 98.0859C23.7322 97.6342 23.5233 97.0696 23.5233 96.392C23.5233 95.8381 23.6789 95.348 23.99 94.9219C24.3053 94.4957 24.7336 94.1612 25.2748 93.9183C25.8202 93.6754 26.4381 93.554 27.1285 93.554C28.1001 93.554 28.8628 93.767 29.4168 94.1932C29.9751 94.6193 30.3714 95.1818 30.6057 95.8807ZM40.01 95.8807L38.6549 96.2642C38.5697 96.0384 38.444 95.8189 38.2778 95.6058C38.1159 95.3885 37.8943 95.2095 37.613 95.0689C37.3318 94.9283 36.9717 94.858 36.5328 94.858C35.9319 94.858 35.4312 94.9964 35.0306 95.2734C34.6343 95.5462 34.4362 95.8935 34.4362 96.3153C34.4362 96.6903 34.5725 96.9865 34.8453 97.2038C35.118 97.4212 35.5441 97.6023 36.1237 97.7472L37.5811 98.1051C38.4589 98.3182 39.113 98.6442 39.5434 99.0831C39.9738 99.5178 40.189 100.078 40.189 100.764C40.189 101.327 40.0271 101.83 39.7032 102.273C39.3836 102.716 38.9362 103.065 38.3609 103.321C37.7856 103.577 37.1166 103.705 36.3538 103.705C35.3524 103.705 34.5235 103.487 33.8673 103.053C33.211 102.618 32.7955 101.983 32.6208 101.148L34.0526 100.79C34.189 101.318 34.4468 101.714 34.8261 101.979C35.2096 102.243 35.7103 102.375 36.3282 102.375C37.0313 102.375 37.5896 102.226 38.0029 101.928C38.4205 101.625 38.6294 101.263 38.6294 100.841C38.6294 100.5 38.51 100.214 38.2714 99.9844C38.0328 99.75 37.6663 99.5753 37.172 99.4602L35.5356 99.0767C34.6365 98.8636 33.9759 98.5334 33.5541 98.0859C33.1365 97.6342 32.9276 97.0696 32.9276 96.392C32.9276 95.8381 33.0832 95.348 33.3943 94.9219C33.7096 94.4957 34.1379 94.1612 34.6791 93.9183C35.2245 93.6754 35.8424 93.554 36.5328 93.554C37.5044 93.554 38.2671 93.767 38.8211 94.1932C39.3794 94.6193 39.7757 95.1818 40.01 95.8807ZM47.0876 89.7955L42.8689 105.469H41.4882L45.7069 89.7955H47.0876ZM56.2394 93.6818C56.1627 93.0341 55.8517 92.5312 55.3062 92.1733C54.7607 91.8153 54.0917 91.6364 53.2991 91.6364C52.7195 91.6364 52.2124 91.7301 51.7778 91.9176C51.3474 92.1051 51.0107 92.3629 50.7678 92.6911C50.5292 93.0192 50.4099 93.392 50.4099 93.8097C50.4099 94.1591 50.493 94.4595 50.6592 94.7109C50.8296 94.9581 51.047 95.1648 51.3112 95.331C51.5754 95.4929 51.8524 95.6271 52.1421 95.7337C52.4319 95.8359 52.6982 95.919 52.9411 95.983L54.2707 96.3409C54.6116 96.4304 54.9909 96.554 55.4085 96.7116C55.8303 96.8693 56.233 97.0845 56.6166 97.3572C57.0044 97.6257 57.324 97.9709 57.5754 98.3928C57.8268 98.8146 57.9525 99.3324 57.9525 99.946C57.9525 100.653 57.7671 101.293 57.3964 101.864C57.0299 102.435 56.493 102.888 55.7856 103.225C55.0825 103.562 54.2281 103.73 53.2224 103.73C52.2849 103.73 51.4731 103.579 50.787 103.276C50.1052 102.974 49.5683 102.552 49.1762 102.011C48.7884 101.469 48.569 100.841 48.5178 100.125H50.1542C50.1968 100.619 50.363 101.028 50.6528 101.352C50.9468 101.672 51.3176 101.911 51.765 102.068C52.2167 102.222 52.7025 102.298 53.2224 102.298C53.8275 102.298 54.3708 102.2 54.8524 102.004C55.3339 101.804 55.7153 101.527 55.9965 101.173C56.2778 100.815 56.4184 100.398 56.4184 99.9205C56.4184 99.4858 56.297 99.1321 56.0541 98.8594C55.8112 98.5866 55.4916 98.3651 55.0953 98.1946C54.699 98.0241 54.2707 97.875 53.8105 97.7472L52.1997 97.2869C51.1769 96.9929 50.3673 96.5732 49.7707 96.0277C49.1741 95.4822 48.8758 94.7685 48.8758 93.8864C48.8758 93.1534 49.074 92.5142 49.4703 91.9688C49.8708 91.419 50.4078 90.9929 51.0811 90.6903C51.7586 90.3835 52.515 90.2301 53.3502 90.2301C54.194 90.2301 54.944 90.3814 55.6002 90.6839C56.2565 90.9822 56.7764 91.3913 57.1599 91.9112C57.5477 92.4311 57.7522 93.0213 57.7735 93.6818H56.2394ZM64.343 103.705C63.4225 103.705 62.6299 103.487 61.9651 103.053C61.3003 102.618 60.789 102.019 60.431 101.256C60.0731 100.494 59.8941 99.6222 59.8941 98.642C59.8941 97.6449 60.0773 96.7649 60.4438 96.0021C60.8145 95.2351 61.3302 94.6364 61.9907 94.206C62.6555 93.7713 63.431 93.554 64.3174 93.554C65.0077 93.554 65.6299 93.6818 66.1839 93.9375C66.7378 94.1932 67.1917 94.5511 67.5454 95.0114C67.8991 95.4716 68.1185 96.0085 68.2037 96.6222H66.6952C66.5802 96.1747 66.3245 95.7784 65.9282 95.4332C65.5361 95.0838 65.0077 94.9091 64.343 94.9091C63.7549 94.9091 63.2393 95.0625 62.7961 95.3693C62.3572 95.6719 62.0141 96.1001 61.767 96.6541C61.5241 97.2038 61.4026 97.8494 61.4026 98.5909C61.4026 99.3494 61.5219 100.01 61.7606 100.572C62.0035 101.135 62.3444 101.572 62.7833 101.883C63.2265 102.194 63.7464 102.349 64.343 102.349C64.735 102.349 65.0908 102.281 65.4104 102.145C65.73 102.009 66.0006 101.812 66.2222 101.557C66.4438 101.301 66.6015 100.994 66.6952 100.636H68.2037C68.1185 101.216 67.9076 101.738 67.5709 102.202C67.2385 102.663 66.7975 103.029 66.2478 103.302C65.7023 103.57 65.0674 103.705 64.343 103.705ZM77.3635 95.8807L76.0084 96.2642C75.9232 96.0384 75.7975 95.8189 75.6313 95.6058C75.4694 95.3885 75.2478 95.2095 74.9665 95.0689C74.6853 94.9283 74.3252 94.858 73.8863 94.858C73.2854 94.858 72.7847 94.9964 72.3841 95.2734C71.9878 95.5462 71.7897 95.8935 71.7897 96.3153C71.7897 96.6903 71.926 96.9865 72.1988 97.2038C72.4715 97.4212 72.8976 97.6023 73.4772 97.7472L74.9346 98.1051C75.8124 98.3182 76.4665 98.6442 76.8969 99.0831C77.3273 99.5178 77.5425 100.078 77.5425 100.764C77.5425 101.327 77.3806 101.83 77.0567 102.273C76.7371 102.716 76.2897 103.065 75.7144 103.321C75.1391 103.577 74.4701 103.705 73.7073 103.705C72.7059 103.705 71.877 103.487 71.2208 103.053C70.5645 102.618 70.1491 101.983 69.9743 101.148L71.4062 100.79C71.5425 101.318 71.8003 101.714 72.1796 101.979C72.5631 102.243 73.0638 102.375 73.6817 102.375C74.3849 102.375 74.9431 102.226 75.3564 101.928C75.7741 101.625 75.9829 101.263 75.9829 100.841C75.9829 100.5 75.8635 100.214 75.6249 99.9844C75.3863 99.75 75.0198 99.5753 74.5255 99.4602L72.8891 99.0767C71.99 98.8636 71.3295 98.5334 70.9076 98.0859C70.49 97.6342 70.2812 97.0696 70.2812 96.392C70.2812 95.8381 70.4367 95.348 70.7478 94.9219C71.0631 94.4957 71.4914 94.1612 72.0326 93.9183C72.578 93.6754 73.1959 93.554 73.8863 93.554C74.8579 93.554 75.6207 93.767 76.1746 94.1932C76.7329 94.6193 77.1292 95.1818 77.3635 95.8807ZM86.7678 95.8807L85.4127 96.2642C85.3275 96.0384 85.2018 95.8189 85.0356 95.6058C84.8737 95.3885 84.6521 95.2095 84.3708 95.0689C84.0896 94.9283 83.7295 94.858 83.2906 94.858C82.6897 94.858 82.189 94.9964 81.7884 95.2734C81.3921 95.5462 81.194 95.8935 81.194 96.3153C81.194 96.6903 81.3303 96.9865 81.6031 97.2038C81.8758 97.4212 82.3019 97.6023 82.8815 97.7472L84.3389 98.1051C85.2167 98.3182 85.8708 98.6442 86.3012 99.0831C86.7316 99.5178 86.9468 100.078 86.9468 100.764C86.9468 101.327 86.7849 101.83 86.461 102.273C86.1414 102.716 85.694 103.065 85.1187 103.321C84.5434 103.577 83.8744 103.705 83.1116 103.705C82.1102 103.705 81.2813 103.487 80.6251 103.053C79.9688 102.618 79.5534 101.983 79.3786 101.148L80.8105 100.79C80.9468 101.318 81.2046 101.714 81.5839 101.979C81.9674 102.243 82.4681 102.375 83.086 102.375C83.7892 102.375 84.3474 102.226 84.7607 101.928C85.1784 101.625 85.3872 101.263 85.3872 100.841C85.3872 100.5 85.2678 100.214 85.0292 99.9844C84.7906 99.75 84.4241 99.5753 83.9298 99.4602L82.2934 99.0767C81.3943 98.8636 80.7338 98.5334 80.3119 98.0859C79.8943 97.6342 79.6855 97.0696 79.6855 96.392C79.6855 95.8381 79.841 95.348 80.1521 94.9219C80.4674 94.4957 80.8957 94.1612 81.4369 93.9183C81.9823 93.6754 82.6002 93.554 83.2906 93.554C84.2622 93.554 85.0249 93.767 85.5789 94.1932C86.1372 94.6193 86.5335 95.1818 86.7678 95.8807Z" fill="#4B5563"/>
</svg>
