<svg width="79" height="100" viewBox="0 0 79 100" fill="none" xmlns="http://www.w3.org/2000/svg">
<g clip-path="url(#clip0_316_307)">
<g clip-path="url(#clip1_316_307)">
<path d="M71.4879 31.295C71.3139 20.595 65.3479 10.177 56.1179 4.69099C48.8459 0.161987 39.6599 -1.05701 31.3859 1.03299C18.9329 4.16799 9.00488 15.446 7.74288 28.3C6.17488 40.44 12.3149 53.066 22.8079 59.292C33.0839 65.736 47.0609 65.475 57.1079 58.692C66.1649 52.814 71.7819 42.092 71.4779 31.304L71.4879 31.295ZM41.2699 59.25C26.7269 60.687 12.6629 48.365 12.2699 33.778C11.1699 21.935 18.9749 10.222 30.1219 6.30299C45.7539 0.0329871 64.9559 11.615 66.5669 28.38C69.0929 43.444 56.5529 58.78 41.2699 59.25ZM31.6999 30.38L52.7299 13.18L41.3659 30.423C38.1439 30.423 34.9219 30.424 31.6999 30.38ZM37.6129 33.56L47.2789 33.604L26.2489 50.847L37.6129 33.56Z" fill="#010101"/>
</g>
<path d="M8.74432 83.1818C8.66761 82.5341 8.35653 82.0312 7.81108 81.6733C7.26563 81.3153 6.59659 81.1364 5.80398 81.1364C5.22443 81.1364 4.71733 81.2301 4.28267 81.4176C3.85227 81.6051 3.51563 81.8629 3.27273 82.1911C3.03409 82.5192 2.91477 82.892 2.91477 83.3097C2.91477 83.6591 2.99787 83.9595 3.16406 84.2109C3.33452 84.4581 3.55185 84.6648 3.81605 84.831C4.08026 84.9929 4.35724 85.1271 4.64702 85.2337C4.93679 85.3359 5.20312 85.419 5.44602 85.483L6.77557 85.8409C7.11648 85.9304 7.49574 86.054 7.91335 86.2116C8.33523 86.3693 8.73793 86.5845 9.12145 86.8572C9.50923 87.1257 9.82884 87.4709 10.0803 87.8928C10.3317 88.3146 10.4574 88.8324 10.4574 89.446C10.4574 90.1534 10.272 90.7926 9.90128 91.3636C9.5348 91.9347 8.99787 92.3885 8.29048 92.7251C7.58736 93.0618 6.73295 93.2301 5.72727 93.2301C4.78977 93.2301 3.97798 93.0788 3.2919 92.7763C2.61009 92.4737 2.07315 92.0518 1.68111 91.5107C1.29332 90.9695 1.07386 90.3409 1.02273 89.625H2.65909C2.7017 90.1193 2.8679 90.5284 3.15767 90.8523C3.4517 91.1719 3.82244 91.4105 4.26989 91.5682C4.72159 91.7216 5.20739 91.7983 5.72727 91.7983C6.33239 91.7983 6.87571 91.7003 7.35724 91.5043C7.83878 91.304 8.22017 91.027 8.50142 90.6733C8.78267 90.3153 8.9233 89.8977 8.9233 89.4205C8.9233 88.9858 8.80185 88.6321 8.55895 88.3594C8.31605 88.0866 7.99645 87.8651 7.60014 87.6946C7.20384 87.5241 6.77557 87.375 6.31534 87.2472L4.70455 86.7869C3.68182 86.4929 2.87216 86.0732 2.27557 85.5277C1.67898 84.9822 1.38068 84.2685 1.38068 83.3864C1.38068 82.6534 1.57884 82.0142 1.97514 81.4688C2.37571 80.919 2.91264 80.4929 3.58594 80.1903C4.26349 79.8835 5.01989 79.7301 5.85511 79.7301C6.69886 79.7301 7.44886 79.8814 8.10511 80.1839C8.76136 80.4822 9.28125 80.8913 9.66477 81.4112C10.0526 81.9311 10.2571 82.5213 10.2784 83.1818H8.74432ZM16.8478 93.2045C15.9615 93.2045 15.1838 92.9936 14.5147 92.5717C13.85 92.1499 13.3301 91.5597 12.9551 90.8011C12.5843 90.0426 12.399 89.1562 12.399 88.142C12.399 87.1193 12.5843 86.2266 12.9551 85.4638C13.3301 84.701 13.85 84.1087 14.5147 83.6868C15.1838 83.2649 15.9615 83.054 16.8478 83.054C17.7342 83.054 18.5098 83.2649 19.1745 83.6868C19.8436 84.1087 20.3635 84.701 20.7342 85.4638C21.1092 86.2266 21.2967 87.1193 21.2967 88.142C21.2967 89.1562 21.1092 90.0426 20.7342 90.8011C20.3635 91.5597 19.8436 92.1499 19.1745 92.5717C18.5098 92.9936 17.7342 93.2045 16.8478 93.2045ZM16.8478 91.8494C17.5211 91.8494 18.0751 91.6768 18.5098 91.3317C18.9444 90.9865 19.2662 90.5327 19.475 89.9702C19.6838 89.4077 19.7882 88.7983 19.7882 88.142C19.7882 87.4858 19.6838 86.8743 19.475 86.3075C19.2662 85.7408 18.9444 85.2827 18.5098 84.9332C18.0751 84.5838 17.5211 84.4091 16.8478 84.4091C16.1745 84.4091 15.6206 84.5838 15.1859 84.9332C14.7512 85.2827 14.4295 85.7408 14.2207 86.3075C14.0119 86.8743 13.9075 87.4858 13.9075 88.142C13.9075 88.7983 14.0119 89.4077 14.2207 89.9702C14.4295 90.5327 14.7512 90.9865 15.1859 91.3317C15.6206 91.6768 16.1745 91.8494 16.8478 91.8494ZM27.5881 93.2045C26.6676 93.2045 25.875 92.9872 25.2102 92.5526C24.5455 92.1179 24.0341 91.5192 23.6761 90.7564C23.3182 89.9936 23.1392 89.1222 23.1392 88.142C23.1392 87.1449 23.3224 86.2649 23.6889 85.5021C24.0597 84.7351 24.5753 84.1364 25.2358 83.706C25.9006 83.2713 26.6761 83.054 27.5625 83.054C28.2528 83.054 28.875 83.1818 29.429 83.4375C29.983 83.6932 30.4368 84.0511 30.7905 84.5114C31.1442 84.9716 31.3636 85.5085 31.4489 86.1222H29.9403C29.8253 85.6747 29.5696 85.2784 29.1733 84.9332C28.7813 84.5838 28.2528 84.4091 27.5881 84.4091C27 84.4091 26.4844 84.5625 26.0412 84.8693C25.6023 85.1719 25.2592 85.6001 25.0121 86.1541C24.7692 86.7038 24.6477 87.3494 24.6477 88.0909C24.6477 88.8494 24.767 89.5099 25.0057 90.0724C25.2486 90.6349 25.5895 91.0717 26.0284 91.3828C26.4716 91.6939 26.9915 91.8494 27.5881 91.8494C27.9801 91.8494 28.3359 91.7812 28.6555 91.6449C28.9751 91.5085 29.2457 91.3125 29.4673 91.0568C29.6889 90.8011 29.8466 90.4943 29.9403 90.1364H31.4489C31.3636 90.7159 31.1527 91.2379 30.8161 91.7024C30.4837 92.1626 30.0426 92.5291 29.4929 92.8018C28.9474 93.0703 28.3125 93.2045 27.5881 93.2045ZM35.0604 89.4205L35.0348 87.554H35.3416L39.6371 83.1818H41.5036L36.9268 87.8097H36.799L35.0604 89.4205ZM33.6541 93V79.9091H35.1626V93H33.6541ZM39.8928 93L36.0575 88.142L37.1314 87.0938L41.8104 93H39.8928ZM47.1573 93.2045C46.2113 93.2045 45.3952 92.9957 44.7092 92.5781C44.0273 92.1562 43.5011 91.5682 43.1303 90.8139C42.7638 90.0554 42.5806 89.1733 42.5806 88.1676C42.5806 87.1619 42.7638 86.2756 43.1303 85.5085C43.5011 84.7372 44.0167 84.1364 44.6772 83.706C45.342 83.2713 46.1175 83.054 47.0039 83.054C47.5153 83.054 48.0202 83.1392 48.5188 83.3097C49.0174 83.4801 49.4712 83.7571 49.8803 84.1406C50.2894 84.5199 50.6154 85.0227 50.8583 85.6491C51.1012 86.2756 51.2227 87.0469 51.2227 87.9631V88.6023H43.6545V87.2983H49.6886C49.6886 86.7443 49.5778 86.25 49.3562 85.8153C49.1388 85.3807 48.8278 85.0376 48.4229 84.7862C48.0224 84.5348 47.5494 84.4091 47.0039 84.4091C46.4031 84.4091 45.8832 84.5582 45.4442 84.8565C45.0096 85.1506 44.6751 85.5341 44.4407 86.0071C44.2063 86.4801 44.0891 86.9872 44.0891 87.5284V88.3977C44.0891 89.1392 44.217 89.7678 44.4727 90.2834C44.7326 90.7947 45.0927 91.1847 45.5529 91.4531C46.0131 91.7173 46.5479 91.8494 47.1573 91.8494C47.5536 91.8494 47.9116 91.794 48.2312 91.6832C48.555 91.5682 48.8342 91.3977 49.0685 91.1719C49.3029 90.9418 49.484 90.6562 49.6119 90.3153L51.0692 90.7244C50.9158 91.2188 50.658 91.6534 50.2958 92.0284C49.9336 92.3991 49.4862 92.6889 48.9535 92.8977C48.4208 93.1023 47.8221 93.2045 47.1573 93.2045ZM57.7873 83.1818V84.4602H52.6992V83.1818H57.7873ZM54.1822 80.8295H55.6907V90.1875C55.6907 90.6136 55.7525 90.9332 55.8761 91.1463C56.0039 91.3551 56.1658 91.4957 56.3619 91.5682C56.5621 91.6364 56.7731 91.6705 56.9947 91.6705C57.1609 91.6705 57.2972 91.6619 57.4038 91.6449C57.5103 91.6236 57.5955 91.6065 57.6594 91.5938L57.9663 92.9489C57.864 92.9872 57.7212 93.0256 57.538 93.0639C57.3548 93.1065 57.1225 93.1278 56.8413 93.1278C56.4151 93.1278 55.9975 93.0362 55.5884 92.853C55.1836 92.6697 54.8469 92.3906 54.5785 92.0156C54.3143 91.6406 54.1822 91.1676 54.1822 90.5966V80.8295ZM61.1559 93.1023C60.8406 93.1023 60.57 92.9893 60.3441 92.7635C60.1183 92.5376 60.0053 92.267 60.0053 91.9517C60.0053 91.6364 60.1183 91.3658 60.3441 91.1399C60.57 90.9141 60.8406 90.8011 61.1559 90.8011C61.4712 90.8011 61.7418 90.9141 61.9677 91.1399C62.1935 91.3658 62.3065 91.6364 62.3065 91.9517C62.3065 92.1605 62.2532 92.3523 62.1467 92.527C62.0444 92.7017 61.9059 92.8423 61.7312 92.9489C61.5607 93.0511 61.369 93.1023 61.1559 93.1023ZM65.0135 93V83.1818H66.522V93H65.0135ZM65.7805 81.5455C65.4865 81.5455 65.233 81.4453 65.0199 81.245C64.8111 81.0447 64.7067 80.804 64.7067 80.5227C64.7067 80.2415 64.8111 80.0007 65.0199 79.8004C65.233 79.6001 65.4865 79.5 65.7805 79.5C66.0746 79.5 66.326 79.6001 66.5348 79.8004C66.7479 80.0007 66.8544 80.2415 66.8544 80.5227C66.8544 80.804 66.7479 81.0447 66.5348 81.245C66.326 81.4453 66.0746 81.5455 65.7805 81.5455ZM73.2736 93.2045C72.3873 93.2045 71.6096 92.9936 70.9405 92.5717C70.2757 92.1499 69.7559 91.5597 69.3809 90.8011C69.0101 90.0426 68.8248 89.1562 68.8248 88.142C68.8248 87.1193 69.0101 86.2266 69.3809 85.4638C69.7559 84.701 70.2757 84.1087 70.9405 83.6868C71.6096 83.2649 72.3873 83.054 73.2736 83.054C74.16 83.054 74.9355 83.2649 75.6003 83.6868C76.2694 84.1087 76.7892 84.701 77.16 85.4638C77.535 86.2266 77.7225 87.1193 77.7225 88.142C77.7225 89.1562 77.535 90.0426 77.16 90.8011C76.7892 91.5597 76.2694 92.1499 75.6003 92.5717C74.9355 92.9936 74.16 93.2045 73.2736 93.2045ZM73.2736 91.8494C73.9469 91.8494 74.5009 91.6768 74.9355 91.3317C75.3702 90.9865 75.6919 90.5327 75.9007 89.9702C76.1096 89.4077 76.214 88.7983 76.214 88.142C76.214 87.4858 76.1096 86.8743 75.9007 86.3075C75.6919 85.7408 75.3702 85.2827 74.9355 84.9332C74.5009 84.5838 73.9469 84.4091 73.2736 84.4091C72.6003 84.4091 72.0463 84.5838 71.6117 84.9332C71.177 85.2827 70.8553 85.7408 70.6465 86.3075C70.4377 86.8743 70.3333 87.4858 70.3333 88.142C70.3333 88.7983 70.4377 89.4077 70.6465 89.9702C70.8553 90.5327 71.177 90.9865 71.6117 91.3317C72.0463 91.6768 72.6003 91.8494 73.2736 91.8494Z" fill="#4B5563"/>
</g>
<defs>
<clipPath id="clip0_316_307">
<rect width="79" height="100" fill="white"/>
</clipPath>
<clipPath id="clip1_316_307">
<rect width="64" height="64" fill="white" transform="translate(7.5)"/>
</clipPath>
</defs>
</svg>
