<svg width="106" height="121" viewBox="0 0 106 121" fill="none" xmlns="http://www.w3.org/2000/svg">
<g clip-path="url(#clip0_316_323)">
<g clip-path="url(#clip1_316_323)">
<mask id="mask0_316_323" style="mask-type:luminance" maskUnits="userSpaceOnUse" x="0" y="10" width="106" height="64">
<path d="M0.974121 10.5H105.701V73.3364H0.974121V10.5Z" fill="white"/>
</mask>
<g mask="url(#mask0_316_323)">
<path fill-rule="evenodd" clip-rule="evenodd" d="M53.3378 10.5C39.3741 10.5 30.6468 17.4818 27.1559 31.4455C32.3923 24.4636 38.5014 21.8455 45.4832 23.5909C49.4667 24.5858 52.3138 27.4775 55.4653 30.6755C60.5988 35.8867 66.5412 41.9182 79.5196 41.9182C93.4832 41.9182 102.21 34.9364 105.701 20.9727C100.465 27.9545 94.3559 30.5727 87.3741 28.8273C83.3906 27.8324 80.5436 24.9407 77.3921 21.7427C72.2585 16.5315 66.3162 10.5 53.3378 10.5ZM27.1559 41.9182C13.1923 41.9182 4.46503 48.9 0.974121 62.8636C6.21048 55.8818 12.3196 53.2636 19.3014 55.0091C23.2849 56.0059 26.1319 58.8956 29.2835 62.0937C34.417 67.3048 40.3593 73.3364 53.3378 73.3364C67.3014 73.3364 76.0287 66.3545 79.5196 52.3909C74.2832 59.3727 68.1741 61.9909 61.1923 60.2455C57.2088 59.2505 54.3618 56.3589 51.2102 53.1608C46.0767 47.9497 40.1344 41.9182 27.1559 41.9182Z" fill="#38BDF8"/>
</g>
</g>
<path d="M4.70696 91.8153V90.4091H14.5251V91.8153H10.4087V103.5H8.82344V91.8153H4.70696ZM18.3204 103.73C17.6983 103.73 17.1336 103.613 16.6265 103.379C16.1194 103.14 15.7167 102.797 15.4184 102.349C15.1201 101.898 14.971 101.352 14.971 100.713C14.971 100.151 15.0818 99.6946 15.3034 99.3452C15.525 98.9915 15.8211 98.7145 16.1919 98.5142C16.5626 98.3139 16.9717 98.1648 17.4191 98.0668C17.8708 97.9645 18.3247 97.8835 18.7807 97.8239C19.3772 97.7472 19.8609 97.6896 20.2316 97.6513C20.6066 97.6087 20.8794 97.5384 21.0498 97.4403C21.2245 97.3423 21.3119 97.1719 21.3119 96.929V96.8778C21.3119 96.2472 21.1393 95.7571 20.7941 95.4077C20.4532 95.0582 19.9355 94.8835 19.2409 94.8835C18.5207 94.8835 17.9561 95.0412 17.547 95.3565C17.1379 95.6719 16.8503 96.0085 16.6841 96.3665L15.2522 95.8551C15.5079 95.2585 15.8488 94.794 16.275 94.4616C16.7054 94.125 17.1741 93.8906 17.6812 93.7585C18.1926 93.6222 18.6954 93.554 19.1897 93.554C19.5051 93.554 19.8673 93.5923 20.2764 93.669C20.6897 93.7415 21.0882 93.8928 21.4717 94.1229C21.8595 94.353 22.1812 94.7003 22.4369 95.1648C22.6926 95.6293 22.8204 96.2514 22.8204 97.0312V103.5H21.3119V102.17H21.2352C21.1329 102.384 20.9625 102.612 20.7238 102.854C20.4852 103.097 20.1677 103.304 19.7714 103.474C19.3751 103.645 18.8914 103.73 18.3204 103.73ZM18.5505 102.375C19.1471 102.375 19.65 102.258 20.0591 102.023C20.4724 101.789 20.7835 101.487 20.9923 101.116C21.2054 100.745 21.3119 100.355 21.3119 99.946V98.5653C21.248 98.642 21.1074 98.7124 20.89 98.7763C20.677 98.8359 20.4298 98.8892 20.1485 98.9361C19.8716 98.9787 19.601 99.017 19.3368 99.0511C19.0768 99.081 18.8659 99.1065 18.7039 99.1278C18.3119 99.179 17.9454 99.2621 17.6045 99.3771C17.2679 99.4879 16.9951 99.6562 16.7863 99.8821C16.5818 100.104 16.4795 100.406 16.4795 100.79C16.4795 101.314 16.6734 101.71 17.0612 101.979C17.4532 102.243 17.9497 102.375 18.5505 102.375ZM25.5738 103.5V93.6818H27.0823V103.5H25.5738ZM26.3408 92.0455C26.0468 92.0455 25.7933 91.9453 25.5802 91.745C25.3714 91.5447 25.267 91.304 25.267 91.0227C25.267 90.7415 25.3714 90.5007 25.5802 90.3004C25.7933 90.1001 26.0468 90 26.3408 90C26.6349 90 26.8863 90.1001 27.0951 90.3004C27.3082 90.5007 27.4147 90.7415 27.4147 91.0227C27.4147 91.304 27.3082 91.5447 27.0951 91.745C26.8863 91.9453 26.6349 92.0455 26.3408 92.0455ZM31.3538 90.4091V103.5H29.8453V90.4091H31.3538ZM36.3412 103.5L33.3497 93.6818H34.9349L37.0571 101.199H37.1594L39.256 93.6818H40.8668L42.9378 101.173H43.0401L45.1622 93.6818H46.7474L43.756 103.5H42.273L40.1253 95.9574H39.9719L37.8242 103.5H36.3412ZM48.7418 103.5V93.6818H50.2503V103.5H48.7418ZM49.5088 92.0455C49.2148 92.0455 48.9612 91.9453 48.7482 91.745C48.5394 91.5447 48.4349 91.304 48.4349 91.0227C48.4349 90.7415 48.5394 90.5007 48.7482 90.3004C48.9612 90.1001 49.2148 90 49.5088 90C49.8028 90 50.0543 90.1001 50.2631 90.3004C50.4761 90.5007 50.5827 90.7415 50.5827 91.0227C50.5827 91.304 50.4761 91.5447 50.2631 91.745C50.0543 91.9453 49.8028 92.0455 49.5088 92.0455ZM54.5218 97.5938V103.5H53.0133V93.6818H54.4706V95.2159H54.5985C54.8286 94.7173 55.178 94.3168 55.6468 94.0142C56.1155 93.7074 56.7206 93.554 57.4621 93.554C58.1269 93.554 58.7086 93.6903 59.2071 93.9631C59.7057 94.2315 60.0935 94.6406 60.3705 95.1903C60.6475 95.7358 60.786 96.4261 60.786 97.2614V103.5H59.2775V97.3636C59.2775 96.5923 59.0772 95.9915 58.6766 95.5611C58.276 95.1264 57.7263 94.9091 57.0275 94.9091C56.5459 94.9091 56.1155 95.0135 55.7363 95.2223C55.3613 95.4311 55.0651 95.7358 54.8478 96.1364C54.6304 96.5369 54.5218 97.0227 54.5218 97.5938ZM67.2499 103.705C66.4318 103.705 65.7095 103.498 65.083 103.085C64.4566 102.667 63.9666 102.079 63.6129 101.32C63.2592 100.558 63.0823 99.6562 63.0823 98.6165C63.0823 97.5852 63.2592 96.6903 63.6129 95.9318C63.9666 95.1733 64.4587 94.5874 65.0894 94.174C65.7201 93.7607 66.4488 93.554 67.2755 93.554C67.9147 93.554 68.4197 93.6605 68.7904 93.8736C69.1654 94.0824 69.4509 94.321 69.647 94.5895C69.8472 94.8537 70.0028 95.071 70.1136 95.2415H70.2414V90.4091H71.7499V103.5H70.2925V101.991H70.1136C70.0028 102.17 69.8451 102.396 69.6406 102.669C69.436 102.937 69.1441 103.178 68.7648 103.391C68.3856 103.6 67.8806 103.705 67.2499 103.705ZM67.4545 102.349C68.0596 102.349 68.571 102.192 68.9886 101.876C69.4062 101.557 69.7237 101.116 69.941 100.553C70.1583 99.9865 70.267 99.3324 70.267 98.5909C70.267 97.858 70.1604 97.2166 69.9474 96.6669C69.7343 96.1129 69.419 95.6825 69.0014 95.3757C68.5837 95.0646 68.0681 94.9091 67.4545 94.9091C66.8153 94.9091 66.2826 95.0732 65.8565 95.4013C65.4346 95.7251 65.1171 96.1662 64.9041 96.7244C64.6952 97.2784 64.5908 97.9006 64.5908 98.5909C64.5908 99.2898 64.6974 99.9247 64.9104 100.496C65.1278 101.062 65.4474 101.514 65.8693 101.851C66.2954 102.183 66.8238 102.349 67.4545 102.349ZM78.7109 103.705C77.7904 103.705 76.9978 103.487 76.333 103.053C75.6683 102.618 75.1569 102.019 74.7989 101.256C74.441 100.494 74.262 99.6222 74.262 98.642C74.262 97.6449 74.4452 96.7649 74.8117 96.0021C75.1825 95.2351 75.6981 94.6364 76.3586 94.206C77.0234 93.7713 77.7989 93.554 78.6853 93.554C79.3756 93.554 79.9978 93.6818 80.5518 93.9375C81.1058 94.1932 81.5596 94.5511 81.9133 95.0114C82.267 95.4716 82.4864 96.0085 82.5717 96.6222H81.0631C80.9481 96.1747 80.6924 95.7784 80.2961 95.4332C79.9041 95.0838 79.3756 94.9091 78.7109 94.9091C78.1228 94.9091 77.6072 95.0625 77.164 95.3693C76.7251 95.6719 76.382 96.1001 76.1349 96.6541C75.892 97.2038 75.7705 97.8494 75.7705 98.5909C75.7705 99.3494 75.8898 100.01 76.1285 100.572C76.3714 101.135 76.7123 101.572 77.1512 101.883C77.5944 102.194 78.1143 102.349 78.7109 102.349C79.1029 102.349 79.4587 102.281 79.7783 102.145C80.0979 102.009 80.3685 101.812 80.5901 101.557C80.8117 101.301 80.9694 100.994 81.0631 100.636H82.5717C82.4864 101.216 82.2755 101.738 81.9389 102.202C81.6065 102.663 81.1654 103.029 80.6157 103.302C80.0702 103.57 79.4353 103.705 78.7109 103.705ZM91.7315 95.8807L90.3764 96.2642C90.2911 96.0384 90.1654 95.8189 89.9992 95.6058C89.8373 95.3885 89.6157 95.2095 89.3345 95.0689C89.0532 94.9283 88.6931 94.858 88.2542 94.858C87.6533 94.858 87.1526 94.9964 86.7521 95.2734C86.3558 95.5462 86.1576 95.8935 86.1576 96.3153C86.1576 96.6903 86.294 96.9865 86.5667 97.2038C86.8394 97.4212 87.2656 97.6023 87.8451 97.7472L89.3025 98.1051C90.1803 98.3182 90.8345 98.6442 91.2648 99.0831C91.6952 99.5178 91.9104 100.078 91.9104 100.764C91.9104 101.327 91.7485 101.83 91.4246 102.273C91.105 102.716 90.6576 103.065 90.0823 103.321C89.507 103.577 88.838 103.705 88.0752 103.705C87.0738 103.705 86.245 103.487 85.5887 103.053C84.9325 102.618 84.517 101.983 84.3423 101.148L85.7741 100.79C85.9104 101.318 86.1683 101.714 86.5475 101.979C86.931 102.243 87.4318 102.375 88.0496 102.375C88.7528 102.375 89.311 102.226 89.7244 101.928C90.142 101.625 90.3508 101.263 90.3508 100.841C90.3508 100.5 90.2315 100.214 89.9928 99.9844C89.7542 99.75 89.3877 99.5753 88.8934 99.4602L87.257 99.0767C86.3579 98.8636 85.6974 98.5334 85.2755 98.0859C84.8579 97.6342 84.6491 97.0696 84.6491 96.392C84.6491 95.8381 84.8046 95.348 85.1157 94.9219C85.431 94.4957 85.8593 94.1612 86.4005 93.9183C86.946 93.6754 87.5639 93.554 88.2542 93.554C89.2258 93.554 89.9886 93.767 90.5425 94.1932C91.1008 94.6193 91.4971 95.1818 91.7315 95.8807ZM101.136 95.8807L99.7807 96.2642C99.6954 96.0384 99.5697 95.8189 99.4035 95.6058C99.2416 95.3885 99.02 95.2095 98.7387 95.0689C98.4575 94.9283 98.0974 94.858 97.6585 94.858C97.0576 94.858 96.5569 94.9964 96.1564 95.2734C95.7601 95.5462 95.5619 95.8935 95.5619 96.3153C95.5619 96.6903 95.6983 96.9865 95.971 97.2038C96.2437 97.4212 96.6699 97.6023 97.2494 97.7472L98.7068 98.1051C99.5846 98.3182 100.239 98.6442 100.669 99.0831C101.1 99.5178 101.315 100.078 101.315 100.764C101.315 101.327 101.153 101.83 100.829 102.273C100.509 102.716 100.062 103.065 99.4866 103.321C98.9113 103.577 98.2423 103.705 97.4795 103.705C96.4781 103.705 95.6493 103.487 94.993 103.053C94.3368 102.618 93.9213 101.983 93.7466 101.148L95.1784 100.79C95.3147 101.318 95.5726 101.714 95.9518 101.979C96.3353 102.243 96.836 102.375 97.4539 102.375C98.1571 102.375 98.7153 102.226 99.1287 101.928C99.5463 101.625 99.7551 101.263 99.7551 100.841C99.7551 100.5 99.6358 100.214 99.3971 99.9844C99.1585 99.75 98.792 99.5753 98.2977 99.4602L96.6613 99.0767C95.7622 98.8636 95.1017 98.5334 94.6798 98.0859C94.2622 97.6342 94.0534 97.0696 94.0534 96.392C94.0534 95.8381 94.2089 95.348 94.52 94.9219C94.8353 94.4957 95.2636 94.1612 95.8048 93.9183C96.3503 93.6754 96.9682 93.554 97.6585 93.554C98.6301 93.554 99.3929 93.767 99.9468 94.1932C100.505 94.6193 100.901 95.1818 101.136 95.8807Z" fill="#4B5563"/>
</g>
<defs>
<clipPath id="clip0_316_323">
<rect width="104.727" height="121" fill="white" transform="translate(0.974121)"/>
</clipPath>
<clipPath id="clip1_316_323">
<rect width="104.727" height="64" fill="white" transform="translate(0.974121 10.5)"/>
</clipPath>
</defs>
</svg>
