<svg width="91" height="100" viewBox="0 0 91 100" fill="none" xmlns="http://www.w3.org/2000/svg">
<g clip-path="url(#clip0_316_271)">
<g clip-path="url(#clip1_316_271)">
<path d="M74.874 0H16.874C15.2172 0 13.874 1.34315 13.874 3V61C13.874 62.6569 15.2172 64 16.874 64H74.874C76.5309 64 77.874 62.6569 77.874 61V3C77.874 1.34315 76.5309 0 74.874 0Z" fill="#3178C6"/>
<path fill-rule="evenodd" clip-rule="evenodd" d="M51.0051 49.734V56.747C52.1413 57.331 53.485 57.7695 55.0364 58.0615C56.5877 58.354 58.2228 58.5 59.9416 58.5C61.6168 58.5 63.2081 58.3395 64.7155 58.018C66.2235 57.6965 67.545 57.167 68.6815 56.429C69.8175 55.691 70.717 54.727 71.38 53.536C72.0425 52.3455 72.374 50.8735 72.374 49.1203C72.374 47.8493 72.1845 46.7353 71.806 45.7783C71.427 44.8214 70.881 43.9704 70.167 43.2252C69.4535 42.4801 68.5975 41.8117 67.6 41.22C66.602 40.6283 65.477 40.0694 64.224 39.5435C63.3064 39.1636 62.4834 38.7947 61.7551 38.4368C61.0268 38.0788 60.4077 37.7136 59.8979 37.341C59.3881 36.9684 58.9948 36.574 58.718 36.1576C58.4413 35.7413 58.3029 35.27 58.3029 34.7441C58.3029 34.2619 58.4267 33.8273 58.6743 33.4402C58.922 33.053 59.2716 32.7206 59.7231 32.443C60.1747 32.1655 60.7282 31.95 61.3837 31.7966C62.0392 31.6431 62.7675 31.5664 63.5686 31.5664C64.1515 31.5664 64.7665 31.6103 65.415 31.6979C66.063 31.7856 66.715 31.9207 67.3705 32.1034C68.026 32.286 68.663 32.5161 69.2825 32.7937C69.9015 33.0713 70.473 33.3927 70.9975 33.7579V27.2054C69.934 26.7963 68.7725 26.4931 67.5125 26.2959C66.2525 26.0986 64.807 26 63.1753 26C61.5148 26 59.9416 26.1789 58.4558 26.5369C56.9701 26.8948 55.6627 27.4537 54.5338 28.2134C53.4049 28.9731 52.5127 29.941 51.8573 31.1171C51.2018 32.2932 50.874 33.6995 50.874 35.3358C50.874 37.4251 51.4749 39.2074 52.6766 40.683C53.8784 42.1587 55.7028 43.4079 58.1499 44.4305C59.1113 44.825 60.0072 45.2122 60.8374 45.592C61.6677 45.9719 62.3851 46.3664 62.9896 46.7755C63.5941 47.1846 64.071 47.6302 64.4205 48.1123C64.7705 48.5944 64.945 49.1423 64.945 49.7559C64.945 50.209 64.836 50.629 64.6175 51.016C64.399 51.403 64.0675 51.739 63.6233 52.024C63.179 52.309 62.6255 52.532 61.9627 52.6925C61.2999 52.853 60.5243 52.9335 59.6357 52.9335C58.1208 52.9335 56.6205 52.667 55.1347 52.1335C53.6489 51.6005 52.2724 50.8005 51.0051 49.734ZM39.2253 32.2772H48.374V26.5H22.874V32.2772H31.978V58H39.2253V32.2772Z" fill="white"/>
</g>
<path d="M1.74334 81.3153V79.9091H11.5615V81.3153H7.44505V93H5.85982V81.3153H1.74334ZM13.6501 96.6818C13.3944 96.6818 13.1665 96.6605 12.9662 96.6179C12.7659 96.5795 12.6274 96.5412 12.5507 96.5028L12.9342 95.1733C13.3007 95.267 13.6246 95.3011 13.9058 95.2756C14.1871 95.25 14.4363 95.1243 14.6537 94.8984C14.8753 94.6768 15.0777 94.3168 15.2609 93.8182L15.5422 93.0511L11.9115 83.1818H13.5479L16.2581 91.0057H16.3604L19.0706 83.1818H20.7069L16.5393 94.4318C16.3518 94.9389 16.1196 95.3587 15.8426 95.6911C15.5656 96.0277 15.2439 96.277 14.8774 96.4389C14.5152 96.6009 14.1061 96.6818 13.6501 96.6818ZM22.6981 96.6818V83.1818H24.1555V84.7415H24.3344C24.4452 84.571 24.5986 84.3537 24.7947 84.0895C24.9949 83.821 25.2805 83.5824 25.6512 83.3736C26.0262 83.1605 26.5333 83.054 27.1725 83.054C27.9992 83.054 28.7279 83.2607 29.3586 83.674C29.9893 84.0874 30.4814 84.6733 30.8351 85.4318C31.1888 86.1903 31.3657 87.0852 31.3657 88.1165C31.3657 89.1562 31.1888 90.0575 30.8351 90.8203C30.4814 91.5788 29.9914 92.1669 29.365 92.5845C28.7385 92.9979 28.0162 93.2045 27.1981 93.2045C26.5674 93.2045 26.0624 93.1001 25.6832 92.8913C25.3039 92.6783 25.012 92.4375 24.8074 92.169C24.6029 91.8963 24.4452 91.6705 24.3344 91.4915H24.2066V96.6818H22.6981ZM24.181 88.0909C24.181 88.8324 24.2897 89.4865 24.507 90.0533C24.7243 90.6158 25.0418 91.0568 25.4594 91.3764C25.877 91.6918 26.3884 91.8494 26.9935 91.8494C27.6242 91.8494 28.1505 91.6832 28.5724 91.3509C28.9985 91.0142 29.3181 90.5625 29.5312 89.9957C29.7485 89.4247 29.8572 88.7898 29.8572 88.0909C29.8572 87.4006 29.7506 86.7784 29.5376 86.2244C29.3287 85.6662 29.0113 85.2251 28.5851 84.9013C28.1633 84.5732 27.6327 84.4091 26.9935 84.4091C26.3799 84.4091 25.8643 84.5646 25.4466 84.8757C25.029 85.1825 24.7137 85.6129 24.5006 86.1669C24.2876 86.7166 24.181 87.358 24.181 88.0909ZM37.7833 93.2045C36.8373 93.2045 36.0212 92.9957 35.3351 92.5781C34.6533 92.1562 34.127 91.5682 33.7563 90.8139C33.3898 90.0554 33.2066 89.1733 33.2066 88.1676C33.2066 87.1619 33.3898 86.2756 33.7563 85.5085C34.127 84.7372 34.6427 84.1364 35.3032 83.706C35.968 83.2713 36.7435 83.054 37.6299 83.054C38.1412 83.054 38.6462 83.1392 39.1448 83.3097C39.6434 83.4801 40.0972 83.7571 40.5063 84.1406C40.9154 84.5199 41.2414 85.0227 41.4843 85.6491C41.7272 86.2756 41.8486 87.0469 41.8486 87.9631V88.6023H34.2805V87.2983H40.3145C40.3145 86.7443 40.2037 86.25 39.9822 85.8153C39.7648 85.3807 39.4537 85.0376 39.0489 84.7862C38.6483 84.5348 38.1753 84.4091 37.6299 84.4091C37.029 84.4091 36.5091 84.5582 36.0702 84.8565C35.6356 85.1506 35.301 85.5341 35.0667 86.0071C34.8323 86.4801 34.7151 86.9872 34.7151 87.5284V88.3977C34.7151 89.1392 34.843 89.7678 35.0986 90.2834C35.3586 90.7947 35.7187 91.1847 36.1789 91.4531C36.6391 91.7173 37.1739 91.8494 37.7833 91.8494C38.1796 91.8494 38.5376 91.794 38.8572 91.6832C39.181 91.5682 39.4601 91.3977 39.6945 91.1719C39.9289 90.9418 40.11 90.6562 40.2378 90.3153L41.6952 90.7244C41.5418 91.2188 41.284 91.6534 40.9218 92.0284C40.5596 92.3991 40.1121 92.6889 39.5795 92.8977C39.0468 93.1023 38.4481 93.2045 37.7833 93.2045ZM51.0979 85.3807L49.7428 85.7642C49.6576 85.5384 49.5319 85.3189 49.3657 85.1058C49.2037 84.8885 48.9822 84.7095 48.7009 84.5689C48.4197 84.4283 48.0596 84.358 47.6207 84.358C47.0198 84.358 46.5191 84.4964 46.1185 84.7734C45.7222 85.0462 45.5241 85.3935 45.5241 85.8153C45.5241 86.1903 45.6604 86.4865 45.9332 86.7038C46.2059 86.9212 46.632 87.1023 47.2116 87.2472L48.6689 87.6051C49.5468 87.8182 50.2009 88.1442 50.6313 88.5831C51.0617 89.0178 51.2769 89.5781 51.2769 90.2642C51.2769 90.8267 51.115 91.3295 50.7911 91.7727C50.4715 92.2159 50.0241 92.5653 49.4488 92.821C48.8735 93.0767 48.2045 93.2045 47.4417 93.2045C46.4403 93.2045 45.6114 92.9872 44.9552 92.5526C44.2989 92.1179 43.8834 91.483 43.7087 90.6477L45.1405 90.2898C45.2769 90.8182 45.5347 91.2145 45.914 91.4787C46.2975 91.7429 46.7982 91.875 47.4161 91.875C48.1192 91.875 48.6775 91.7259 49.0908 91.4276C49.5084 91.125 49.7172 90.7628 49.7172 90.3409C49.7172 90 49.5979 89.7145 49.3593 89.4844C49.1206 89.25 48.7542 89.0753 48.2599 88.9602L46.6235 88.5767C45.7243 88.3636 45.0638 88.0334 44.642 87.5859C44.2243 87.1342 44.0155 86.5696 44.0155 85.892C44.0155 85.3381 44.1711 84.848 44.4822 84.4219C44.7975 83.9957 45.2258 83.6612 45.767 83.4183C46.3124 83.1754 46.9303 83.054 47.6207 83.054C48.5922 83.054 49.355 83.267 49.909 83.6932C50.4672 84.1193 50.8635 84.6818 51.0979 85.3807ZM57.5363 93.2045C56.6159 93.2045 55.8232 92.9872 55.1585 92.5526C54.4937 92.1179 53.9823 91.5192 53.6244 90.7564C53.2664 89.9936 53.0874 89.1222 53.0874 88.142C53.0874 87.1449 53.2707 86.2649 53.6372 85.5021C54.0079 84.7351 54.5235 84.1364 55.184 83.706C55.8488 83.2713 56.6244 83.054 57.5107 83.054C58.2011 83.054 58.8232 83.1818 59.3772 83.4375C59.9312 83.6932 60.385 84.0511 60.7387 84.5114C61.0924 84.9716 61.3119 85.5085 61.3971 86.1222H59.8886C59.7735 85.6747 59.5178 85.2784 59.1215 84.9332C58.7295 84.5838 58.2011 84.4091 57.5363 84.4091C56.9482 84.4091 56.4326 84.5625 55.9894 84.8693C55.5505 85.1719 55.2075 85.6001 54.9603 86.1541C54.7174 86.7038 54.596 87.3494 54.596 88.0909C54.596 88.8494 54.7153 89.5099 54.9539 90.0724C55.1968 90.6349 55.5377 91.0717 55.9767 91.3828C56.4198 91.6939 56.9397 91.8494 57.5363 91.8494C57.9284 91.8494 58.2842 91.7812 58.6038 91.6449C58.9234 91.5085 59.194 91.3125 59.4156 91.0568C59.6372 90.8011 59.7948 90.4943 59.8886 90.1364H61.3971C61.3119 90.7159 61.1009 91.2379 60.7643 91.7024C60.4319 92.1626 59.9909 92.5291 59.4411 92.8018C58.8957 93.0703 58.2607 93.2045 57.5363 93.2045ZM63.6024 93V83.1818H65.0597V84.6648H65.162C65.341 84.179 65.6649 83.7848 66.1336 83.4822C66.6024 83.1797 67.1308 83.0284 67.7188 83.0284C67.8296 83.0284 67.9681 83.0305 68.1343 83.0348C68.3005 83.0391 68.4262 83.0455 68.5115 83.054V84.5881C68.4603 84.5753 68.3431 84.5561 68.1599 84.5305C67.9809 84.5007 67.7913 84.4858 67.591 84.4858C67.1137 84.4858 66.6876 84.5859 66.3126 84.7862C65.9419 84.9822 65.6478 85.255 65.4305 85.6044C65.2174 85.9496 65.1109 86.3437 65.1109 86.7869V93H63.6024ZM70.2996 93V83.1818H71.8082V93H70.2996ZM71.0667 81.5455C70.7726 81.5455 70.5191 81.4453 70.306 81.245C70.0972 81.0447 69.9928 80.804 69.9928 80.5227C69.9928 80.2415 70.0972 80.0007 70.306 79.8004C70.5191 79.6001 70.7726 79.5 71.0667 79.5C71.3607 79.5 71.6121 79.6001 71.8209 79.8004C72.034 80.0007 72.1405 80.2415 72.1405 80.5227C72.1405 80.804 72.034 81.0447 71.8209 81.245C71.6121 81.4453 71.3607 81.5455 71.0667 81.5455ZM74.5711 96.6818V83.1818H76.0285V84.7415H76.2075C76.3183 84.571 76.4717 84.3537 76.6677 84.0895C76.868 83.821 77.1535 83.5824 77.5242 83.3736C77.8992 83.1605 78.4063 83.054 79.0455 83.054C79.8722 83.054 80.6009 83.2607 81.2316 83.674C81.8623 84.0874 82.3545 84.6733 82.7082 85.4318C83.0619 86.1903 83.2387 87.0852 83.2387 88.1165C83.2387 89.1562 83.0619 90.0575 82.7082 90.8203C82.3545 91.5788 81.8644 92.1669 81.238 92.5845C80.6116 92.9979 79.8893 93.2045 79.0711 93.2045C78.4404 93.2045 77.9355 93.1001 77.5562 92.8913C77.1769 92.6783 76.885 92.4375 76.6805 92.169C76.4759 91.8963 76.3183 91.6705 76.2075 91.4915H76.0796V96.6818H74.5711ZM76.0541 88.0909C76.0541 88.8324 76.1627 89.4865 76.3801 90.0533C76.5974 90.6158 76.9149 91.0568 77.3325 91.3764C77.7501 91.6918 78.2615 91.8494 78.8666 91.8494C79.4972 91.8494 80.0235 91.6832 80.4454 91.3509C80.8715 91.0142 81.1911 90.5625 81.4042 89.9957C81.6215 89.4247 81.7302 88.7898 81.7302 88.0909C81.7302 87.4006 81.6237 86.7784 81.4106 86.2244C81.2018 85.6662 80.8843 85.2251 80.4582 84.9013C80.0363 84.5732 79.5058 84.4091 78.8666 84.4091C78.2529 84.4091 77.7373 84.5646 77.3197 84.8757C76.9021 85.1825 76.5867 85.6129 76.3737 86.1669C76.1606 86.7166 76.0541 87.358 76.0541 88.0909ZM89.8097 83.1818V84.4602H84.7217V83.1818H89.8097ZM86.2046 80.8295H87.7132V90.1875C87.7132 90.6136 87.7749 90.9332 87.8985 91.1463C88.0264 91.3551 88.1883 91.4957 88.3843 91.5682C88.5846 91.6364 88.7955 91.6705 89.0171 91.6705C89.1833 91.6705 89.3197 91.6619 89.4262 91.6449C89.5328 91.6236 89.618 91.6065 89.6819 91.5938L89.9887 92.9489C89.8865 92.9872 89.7437 93.0256 89.5605 93.0639C89.3772 93.1065 89.145 93.1278 88.8637 93.1278C88.4376 93.1278 88.02 93.0362 87.6109 92.853C87.2061 92.6697 86.8694 92.3906 86.6009 92.0156C86.3367 91.6406 86.2046 91.1676 86.2046 90.5966V80.8295Z" fill="#4B5563"/>
</g>
<defs>
<clipPath id="clip0_316_271">
<rect width="90" height="100" fill="white" transform="translate(0.874023)"/>
</clipPath>
<clipPath id="clip1_316_271">
<rect width="64" height="64" fill="white" transform="translate(13.874)"/>
</clipPath>
</defs>
</svg>
