<svg width="16" height="16" viewBox="0 0 16 16" fill="none" xmlns="http://www.w3.org/2000/svg">
<g clip-path="url(#clip0_327_412)">
<path d="M7.99992 14.6668C11.6818 14.6668 14.6666 11.6821 14.6666 8.00016C14.6666 4.31826 11.6818 1.3335 7.99992 1.3335C4.31802 1.3335 1.33325 4.31826 1.33325 8.00016C1.33325 11.6821 4.31802 14.6668 7.99992 14.6668Z" stroke="#4B5563" stroke-width="2" stroke-linecap="round" stroke-linejoin="round"/>
<path d="M10 6.23616C9.64172 5.82996 9.16823 5.5425 8.64254 5.41203C8.11685 5.28155 7.5639 5.31424 7.05725 5.50576C6.5506 5.69728 6.11429 6.03854 5.80636 6.48414C5.49843 6.92973 5.3335 7.45853 5.3335 8.00016C5.3335 8.5418 5.49843 9.0706 5.80636 9.51619C6.11429 9.96178 6.5506 10.303 7.05725 10.4946C7.5639 10.6861 8.11685 10.7188 8.64254 10.5883C9.16823 10.4578 9.64172 10.1704 10 9.76416" stroke="#4B5563" stroke-width="2" stroke-linecap="round" stroke-linejoin="round"/>
</g>
<defs>
<clipPath id="clip0_327_412">
<rect width="16" height="16" fill="white"/>
</clipPath>
</defs>
</svg>
